<?xml version="1.0" encoding="UTF-8" standalone="no"?>
<!DOCTYPE svg PUBLIC "-//W3C//DTD SVG 1.1//EN"
 "http://www.w3.org/Graphics/SVG/1.1/DTD/svg11.dtd">
<!-- Generated by graphviz version 2.48.0 (20210717.1556)
 -->
<!-- Pages: 1 -->
<svg width="1094pt" height="445pt"
 viewBox="0.00 0.00 1094.39 445.38" xmlns="http://www.w3.org/2000/svg" xmlns:xlink="http://www.w3.org/1999/xlink">
<g id="graph0" class="graph" transform="scale(1 1) rotate(0) translate(4 441.38)">
<polygon fill="white" stroke="transparent" points="-4,4 -4,-441.38 1090.39,-441.38 1090.39,4 -4,4"/>
<!-- 1174864191004870744 -->
<g id="node1" class="node">
<title>1174864191004870744</title>
<ellipse fill="none" stroke="black" cx="83.19" cy="-45.5" rx="45.49" ry="45.49"/>
<text text-anchor="middle" x="83.19" y="-41.8" font-family="Helvetica,sans-Serif" font-size="14.00">read&#45;csv</text>
</g>
<!-- 7114430923959883944 -->
<g id="node2" class="node">
<title>7114430923959883944</title>
<polygon fill="none" stroke="black" points="110.19,-162.99 56.19,-162.99 56.19,-126.99 110.19,-126.99 110.19,-162.99"/>
<text text-anchor="middle" x="83.19" y="-141.29" font-family="Helvetica,sans-Serif" font-size="14.00">0</text>
</g>
<!-- 1174864191004870744&#45;&gt;7114430923959883944 -->
<g id="edge1" class="edge">
<title>1174864191004870744&#45;&gt;7114430923959883944</title>
<path fill="none" stroke="black" d="M83.19,-91.25C83.19,-99.92 83.19,-108.76 83.19,-116.67"/>
<polygon fill="black" stroke="black" points="79.69,-116.76 83.19,-126.76 86.69,-116.76 79.69,-116.76"/>
</g>
<!-- &#45;236996700728809989 -->
<g id="node13" class="node">
<title>&#45;236996700728809989</title>
<ellipse fill="none" stroke="black" cx="83.19" cy="-282.18" rx="83.39" ry="83.39"/>
<text text-anchor="middle" x="83.19" y="-278.48" font-family="Helvetica,sans-Serif" font-size="14.00">to_pyarrow_string</text>
</g>
<!-- 7114430923959883944&#45;&gt;&#45;236996700728809989 -->
<g id="edge8" class="edge">
<title>7114430923959883944&#45;&gt;&#45;236996700728809989</title>
<path fill="none" stroke="black" d="M83.19,-163.11C83.19,-170.18 83.19,-178.96 83.19,-188.51"/>
<polygon fill="black" stroke="black" points="79.69,-188.71 83.19,-198.71 86.69,-188.71 79.69,-188.71"/>
</g>
<!-- 8259586401576563319 -->
<g id="node3" class="node">
<title>8259586401576563319</title>
<ellipse fill="none" stroke="black" cx="267.19" cy="-45.5" rx="45.49" ry="45.49"/>
<text text-anchor="middle" x="267.19" y="-41.8" font-family="Helvetica,sans-Serif" font-size="14.00">read&#45;csv</text>
</g>
<!-- &#45;4824672393647669247 -->
<g id="node4" class="node">
<title>&#45;4824672393647669247</title>
<polygon fill="none" stroke="black" points="294.19,-162.99 240.19,-162.99 240.19,-126.99 294.19,-126.99 294.19,-162.99"/>
<text text-anchor="middle" x="267.19" y="-141.29" font-family="Helvetica,sans-Serif" font-size="14.00">1</text>
</g>
<!-- 8259586401576563319&#45;&gt;&#45;4824672393647669247 -->
<g id="edge2" class="edge">
<title>8259586401576563319&#45;&gt;&#45;4824672393647669247</title>
<path fill="none" stroke="black" d="M267.19,-91.25C267.19,-99.92 267.19,-108.76 267.19,-116.67"/>
<polygon fill="black" stroke="black" points="263.69,-116.76 267.19,-126.76 270.69,-116.76 263.69,-116.76"/>
</g>
<!-- &#45;1041123605877383031 -->
<g id="node15" class="node">
<title>&#45;1041123605877383031</title>
<ellipse fill="none" stroke="black" cx="267.19" cy="-282.18" rx="83.39" ry="83.39"/>
<text text-anchor="middle" x="267.19" y="-278.48" font-family="Helvetica,sans-Serif" font-size="14.00">to_pyarrow_string</text>
</g>
<!-- &#45;4824672393647669247&#45;&gt;&#45;1041123605877383031 -->
<g id="edge10" class="edge">
<title>&#45;4824672393647669247&#45;&gt;&#45;1041123605877383031</title>
<path fill="none" stroke="black" d="M267.19,-163.11C267.19,-170.18 267.19,-178.96 267.19,-188.51"/>
<polygon fill="black" stroke="black" points="263.69,-188.71 267.19,-198.71 270.69,-188.71 263.69,-188.71"/>
</g>
<!-- 7455459496427990277 -->
<g id="node5" class="node">
<title>7455459496427990277</title>
<ellipse fill="none" stroke="black" cx="451.19" cy="-45.5" rx="45.49" ry="45.49"/>
<text text-anchor="middle" x="451.19" y="-41.8" font-family="Helvetica,sans-Serif" font-size="14.00">read&#45;csv</text>
</g>
<!-- 1682968362454329178 -->
<g id="node6" class="node">
<title>1682968362454329178</title>
<polygon fill="none" stroke="black" points="478.19,-162.99 424.19,-162.99 424.19,-126.99 478.19,-126.99 478.19,-162.99"/>
<text text-anchor="middle" x="451.19" y="-141.29" font-family="Helvetica,sans-Serif" font-size="14.00">2</text>
</g>
<!-- 7455459496427990277&#45;&gt;1682968362454329178 -->
<g id="edge3" class="edge">
<title>7455459496427990277&#45;&gt;1682968362454329178</title>
<path fill="none" stroke="black" d="M451.19,-91.25C451.19,-99.92 451.19,-108.76 451.19,-116.67"/>
<polygon fill="black" stroke="black" points="447.69,-116.76 451.19,-126.76 454.69,-116.76 447.69,-116.76"/>
</g>
<!-- &#45;2077963018149703674 -->
<g id="node17" class="node">
<title>&#45;2077963018149703674</title>
<ellipse fill="none" stroke="black" cx="451.19" cy="-282.18" rx="83.39" ry="83.39"/>
<text text-anchor="middle" x="451.19" y="-278.48" font-family="Helvetica,sans-Serif" font-size="14.00">to_pyarrow_string</text>
</g>
<!-- 1682968362454329178&#45;&gt;&#45;2077963018149703674 -->
<g id="edge12" class="edge">
<title>1682968362454329178&#45;&gt;&#45;2077963018149703674</title>
<path fill="none" stroke="black" d="M451.19,-163.11C451.19,-170.18 451.19,-178.96 451.19,-188.51"/>
<polygon fill="black" stroke="black" points="447.69,-188.71 451.19,-198.71 454.69,-188.71 447.69,-188.71"/>
</g>
<!-- &#45;6751965404842668731 -->
<g id="node7" class="node">
<title>&#45;6751965404842668731</title>
<ellipse fill="none" stroke="black" cx="635.19" cy="-45.5" rx="45.49" ry="45.49"/>
<text text-anchor="middle" x="635.19" y="-41.8" font-family="Helvetica,sans-Serif" font-size="14.00">read&#45;csv</text>
</g>
<!-- &#45;3210105666518367188 -->
<g id="node8" class="node">
<title>&#45;3210105666518367188</title>
<polygon fill="none" stroke="black" points="662.19,-162.99 608.19,-162.99 608.19,-126.99 662.19,-126.99 662.19,-162.99"/>
<text text-anchor="middle" x="635.19" y="-141.29" font-family="Helvetica,sans-Serif" font-size="14.00">3</text>
</g>
<!-- &#45;6751965404842668731&#45;&gt;&#45;3210105666518367188 -->
<g id="edge4" class="edge">
<title>&#45;6751965404842668731&#45;&gt;&#45;3210105666518367188</title>
<path fill="none" stroke="black" d="M635.19,-91.25C635.19,-99.92 635.19,-108.76 635.19,-116.67"/>
<polygon fill="black" stroke="black" points="631.69,-116.76 635.19,-126.76 638.69,-116.76 631.69,-116.76"/>
</g>
<!-- &#45;2882089923298276716 -->
<g id="node19" class="node">
<title>&#45;2882089923298276716</title>
<ellipse fill="none" stroke="black" cx="635.19" cy="-282.18" rx="83.39" ry="83.39"/>
<text text-anchor="middle" x="635.19" y="-278.48" font-family="Helvetica,sans-Serif" font-size="14.00">to_pyarrow_string</text>
</g>
<!-- &#45;3210105666518367188&#45;&gt;&#45;2882089923298276716 -->
<g id="edge14" class="edge">
<title>&#45;3210105666518367188&#45;&gt;&#45;2882089923298276716</title>
<path fill="none" stroke="black" d="M635.19,-163.11C635.19,-170.18 635.19,-178.96 635.19,-188.51"/>
<polygon fill="black" stroke="black" points="631.69,-188.71 635.19,-198.71 638.69,-188.71 631.69,-188.71"/>
</g>
<!-- 5614493179007096592 -->
<g id="node9" class="node">
<title>5614493179007096592</title>
<ellipse fill="none" stroke="black" cx="819.19" cy="-45.5" rx="45.49" ry="45.49"/>
<text text-anchor="middle" x="819.19" y="-41.8" font-family="Helvetica,sans-Serif" font-size="14.00">read&#45;csv</text>
</g>
<!-- &#45;1100822293400736891 -->
<g id="node10" class="node">
<title>&#45;1100822293400736891</title>
<polygon fill="none" stroke="black" points="846.19,-162.99 792.19,-162.99 792.19,-126.99 846.19,-126.99 846.19,-162.99"/>
<text text-anchor="middle" x="819.19" y="-141.29" font-family="Helvetica,sans-Serif" font-size="14.00">4</text>
</g>
<!-- 5614493179007096592&#45;&gt;&#45;1100822293400736891 -->
<g id="edge5" class="edge">
<title>5614493179007096592&#45;&gt;&#45;1100822293400736891</title>
<path fill="none" stroke="black" d="M819.19,-91.25C819.19,-99.92 819.19,-108.76 819.19,-116.67"/>
<polygon fill="black" stroke="black" points="815.69,-116.76 819.19,-126.76 822.69,-116.76 815.69,-116.76"/>
</g>
<!-- &#45;3041128133843752236 -->
<g id="node21" class="node">
<title>&#45;3041128133843752236</title>
<ellipse fill="none" stroke="black" cx="819.19" cy="-282.18" rx="83.39" ry="83.39"/>
<text text-anchor="middle" x="819.19" y="-278.48" font-family="Helvetica,sans-Serif" font-size="14.00">to_pyarrow_string</text>
</g>
<!-- &#45;1100822293400736891&#45;&gt;&#45;3041128133843752236 -->
<g id="edge16" class="edge">
<title>&#45;1100822293400736891&#45;&gt;&#45;3041128133843752236</title>
<path fill="none" stroke="black" d="M819.19,-163.11C819.19,-170.18 819.19,-178.96 819.19,-188.51"/>
<polygon fill="black" stroke="black" points="815.69,-188.71 819.19,-198.71 822.69,-188.71 815.69,-188.71"/>
</g>
<!-- &#45;8592931722263562416 -->
<g id="node11" class="node">
<title>&#45;8592931722263562416</title>
<ellipse fill="none" stroke="black" cx="1003.19" cy="-45.5" rx="45.49" ry="45.49"/>
<text text-anchor="middle" x="1003.19" y="-41.8" font-family="Helvetica,sans-Serif" font-size="14.00">read&#45;csv</text>
</g>
<!-- &#45;5993896322373433257 -->
<g id="node12" class="node">
<title>&#45;5993896322373433257</title>
<polygon fill="none" stroke="black" points="1030.19,-162.99 976.19,-162.99 976.19,-126.99 1030.19,-126.99 1030.19,-162.99"/>
<text text-anchor="middle" x="1003.19" y="-141.29" font-family="Helvetica,sans-Serif" font-size="14.00">5</text>
</g>
<!-- &#45;8592931722263562416&#45;&gt;&#45;5993896322373433257 -->
<g id="edge6" class="edge">
<title>&#45;8592931722263562416&#45;&gt;&#45;5993896322373433257</title>
<path fill="none" stroke="black" d="M1003.19,-91.25C1003.19,-99.92 1003.19,-108.76 1003.19,-116.67"/>
<polygon fill="black" stroke="black" points="999.69,-116.76 1003.19,-126.76 1006.69,-116.76 999.69,-116.76"/>
</g>
<!-- 8441951459712308467 -->
<g id="node23" class="node">
<title>8441951459712308467</title>
<ellipse fill="none" stroke="black" cx="1003.19" cy="-282.18" rx="83.39" ry="83.39"/>
<text text-anchor="middle" x="1003.19" y="-278.48" font-family="Helvetica,sans-Serif" font-size="14.00">to_pyarrow_string</text>
</g>
<!-- &#45;5993896322373433257&#45;&gt;8441951459712308467 -->
<g id="edge18" class="edge">
<title>&#45;5993896322373433257&#45;&gt;8441951459712308467</title>
<path fill="none" stroke="black" d="M1003.19,-163.11C1003.19,-170.18 1003.19,-178.96 1003.19,-188.51"/>
<polygon fill="black" stroke="black" points="999.69,-188.71 1003.19,-198.71 1006.69,-188.71 999.69,-188.71"/>
</g>
<!-- 603806333072894016 -->
<g id="node14" class="node">
<title>603806333072894016</title>
<polygon fill="none" stroke="black" points="110.19,-437.38 56.19,-437.38 56.19,-401.38 110.19,-401.38 110.19,-437.38"/>
<text text-anchor="middle" x="83.19" y="-415.68" font-family="Helvetica,sans-Serif" font-size="14.00">0</text>
</g>
<!-- &#45;236996700728809989&#45;&gt;603806333072894016 -->
<g id="edge7" class="edge">
<title>&#45;236996700728809989&#45;&gt;603806333072894016</title>
<path fill="none" stroke="black" d="M83.19,-365.72C83.19,-374.84 83.19,-383.57 83.19,-391.22"/>
<polygon fill="black" stroke="black" points="79.69,-391.22 83.19,-401.22 86.69,-391.22 79.69,-391.22"/>
</g>
<!-- 7111447089174892441 -->
<g id="node16" class="node">
<title>7111447089174892441</title>
<polygon fill="none" stroke="black" points="294.19,-437.38 240.19,-437.38 240.19,-401.38 294.19,-401.38 294.19,-437.38"/>
<text text-anchor="middle" x="267.19" y="-415.68" font-family="Helvetica,sans-Serif" font-size="14.00">1</text>
</g>
<!-- &#45;1041123605877383031&#45;&gt;7111447089174892441 -->
<g id="edge9" class="edge">
<title>&#45;1041123605877383031&#45;&gt;7111447089174892441</title>
<path fill="none" stroke="black" d="M267.19,-365.72C267.19,-374.84 267.19,-383.57 267.19,-391.22"/>
<polygon fill="black" stroke="black" points="263.69,-391.22 267.19,-401.22 270.69,-391.22 263.69,-391.22"/>
</g>
<!-- &#45;2179984322782172053 -->
<g id="node18" class="node">
<title>&#45;2179984322782172053</title>
<polygon fill="none" stroke="black" points="478.19,-437.38 424.19,-437.38 424.19,-401.38 478.19,-401.38 478.19,-437.38"/>
<text text-anchor="middle" x="451.19" y="-415.68" font-family="Helvetica,sans-Serif" font-size="14.00">2</text>
</g>
<!-- &#45;2077963018149703674&#45;&gt;&#45;2179984322782172053 -->
<g id="edge11" class="edge">
<title>&#45;2077963018149703674&#45;&gt;&#45;2179984322782172053</title>
<path fill="none" stroke="black" d="M451.19,-365.72C451.19,-374.84 451.19,-383.57 451.19,-391.22"/>
<polygon fill="black" stroke="black" points="447.69,-391.22 451.19,-401.22 454.69,-391.22 447.69,-391.22"/>
</g>
<!-- 4327656433319826372 -->
<g id="node20" class="node">
<title>4327656433319826372</title>
<polygon fill="none" stroke="black" points="662.19,-437.38 608.19,-437.38 608.19,-401.38 662.19,-401.38 662.19,-437.38"/>
<text text-anchor="middle" x="635.19" y="-415.68" font-family="Helvetica,sans-Serif" font-size="14.00">3</text>
</g>
<!-- &#45;2882089923298276716&#45;&gt;4327656433319826372 -->
<g id="edge13" class="edge">
<title>&#45;2882089923298276716&#45;&gt;4327656433319826372</title>
<path fill="none" stroke="black" d="M635.19,-365.72C635.19,-374.84 635.19,-383.57 635.19,-391.22"/>
<polygon fill="black" stroke="black" points="631.69,-391.22 635.19,-401.22 638.69,-391.22 631.69,-391.22"/>
</g>
<!-- &#45;565417595652869994 -->
<g id="node22" class="node">
<title>&#45;565417595652869994</title>
<polygon fill="none" stroke="black" points="846.19,-437.38 792.19,-437.38 792.19,-401.38 846.19,-401.38 846.19,-437.38"/>
<text text-anchor="middle" x="819.19" y="-415.68" font-family="Helvetica,sans-Serif" font-size="14.00">4</text>
</g>
<!-- &#45;3041128133843752236&#45;&gt;&#45;565417595652869994 -->
<g id="edge15" class="edge">
<title>&#45;3041128133843752236&#45;&gt;&#45;565417595652869994</title>
<path fill="none" stroke="black" d="M819.19,-365.72C819.19,-374.84 819.19,-383.57 819.19,-391.22"/>
<polygon fill="black" stroke="black" points="815.69,-391.22 819.19,-401.22 822.69,-391.22 815.69,-391.22"/>
</g>
<!-- 5942223160449128431 -->
<g id="node24" class="node">
<title>5942223160449128431</title>
<polygon fill="none" stroke="black" points="1030.19,-437.38 976.19,-437.38 976.19,-401.38 1030.19,-401.38 1030.19,-437.38"/>
<text text-anchor="middle" x="1003.19" y="-415.68" font-family="Helvetica,sans-Serif" font-size="14.00">5</text>
</g>
<!-- 8441951459712308467&#45;&gt;5942223160449128431 -->
<g id="edge17" class="edge">
<title>8441951459712308467&#45;&gt;5942223160449128431</title>
<path fill="none" stroke="black" d="M1003.19,-365.72C1003.19,-374.84 1003.19,-383.57 1003.19,-391.22"/>
<polygon fill="black" stroke="black" points="999.69,-391.22 1003.19,-401.22 1006.69,-391.22 999.69,-391.22"/>
</g>
</g>
</svg>
