<?xml version="1.0" encoding="UTF-8" standalone="no"?>
<!DOCTYPE svg PUBLIC "-//W3C//DTD SVG 1.1//EN"
 "http://www.w3.org/Graphics/SVG/1.1/DTD/svg11.dtd">
<!-- Generated by graphviz version 9.0.0 (20230911.1827)
 -->
<!-- Pages: 1 -->
<svg width="1058pt" height="436pt"
 viewBox="0.00 0.00 1058.21 436.28" xmlns="http://www.w3.org/2000/svg" xmlns:xlink="http://www.w3.org/1999/xlink">
<g id="graph0" class="graph" transform="scale(1 1) rotate(0) translate(4 432.28)">
<polygon fill="white" stroke="none" points="-4,4 -4,-432.28 1054.21,-432.28 1054.21,4 -4,4"/>
<!-- &#45;7150382809904974857 -->
<g id="node1" class="node">
<title>&#45;7150382809904974857</title>
<ellipse fill="none" stroke="black" cx="80.11" cy="-44.03" rx="44.03" ry="44.03"/>
<text text-anchor="middle" x="80.11" y="-38.23" font-family="Helvetica,sans-Serif" font-size="14.00">read&#45;csv</text>
</g>
<!-- &#45;6194689680917011400 -->
<g id="node2" class="node">
<title>&#45;6194689680917011400</title>
<polygon fill="none" stroke="black" points="107.11,-160.07 53.11,-160.07 53.11,-124.07 107.11,-124.07 107.11,-160.07"/>
<text text-anchor="middle" x="80.11" y="-136.27" font-family="Helvetica,sans-Serif" font-size="14.00">0</text>
</g>
<!-- &#45;7150382809904974857&#45;&gt;&#45;6194689680917011400 -->
<g id="edge1" class="edge">
<title>&#45;7150382809904974857&#45;&gt;&#45;6194689680917011400</title>
<path fill="none" stroke="black" d="M80.11,-88.55C80.11,-96.66 80.11,-104.95 80.11,-112.46"/>
<polygon fill="black" stroke="black" points="76.61,-112.36 80.11,-122.36 83.61,-112.36 76.61,-112.36"/>
</g>
<!-- 6071941830101125281 -->
<g id="node13" class="node">
<title>6071941830101125281</title>
<ellipse fill="none" stroke="black" cx="80.11" cy="-276.17" rx="80.11" ry="80.11"/>
<text text-anchor="middle" x="80.11" y="-270.37" font-family="Helvetica,sans-Serif" font-size="14.00">to_pyarrow_string</text>
</g>
<!-- &#45;6194689680917011400&#45;&gt;6071941830101125281 -->
<g id="edge8" class="edge">
<title>&#45;6194689680917011400&#45;&gt;6071941830101125281</title>
<path fill="none" stroke="black" d="M80.11,-160.34C80.11,-167.1 80.11,-175.4 80.11,-184.42"/>
<polygon fill="black" stroke="black" points="76.61,-184.22 80.11,-194.22 83.61,-184.22 76.61,-184.22"/>
</g>
<!-- &#45;65660599333282282 -->
<g id="node3" class="node">
<title>&#45;65660599333282282</title>
<ellipse fill="none" stroke="black" cx="258.11" cy="-44.03" rx="44.03" ry="44.03"/>
<text text-anchor="middle" x="258.11" y="-38.23" font-family="Helvetica,sans-Serif" font-size="14.00">read&#45;csv</text>
</g>
<!-- 312951075184987025 -->
<g id="node4" class="node">
<title>312951075184987025</title>
<polygon fill="none" stroke="black" points="285.11,-160.07 231.11,-160.07 231.11,-124.07 285.11,-124.07 285.11,-160.07"/>
<text text-anchor="middle" x="258.11" y="-136.27" font-family="Helvetica,sans-Serif" font-size="14.00">1</text>
</g>
<!-- &#45;65660599333282282&#45;&gt;312951075184987025 -->
<g id="edge2" class="edge">
<title>&#45;65660599333282282&#45;&gt;312951075184987025</title>
<path fill="none" stroke="black" d="M258.11,-88.55C258.11,-96.66 258.11,-104.95 258.11,-112.46"/>
<polygon fill="black" stroke="black" points="254.61,-112.36 258.11,-122.36 261.61,-112.36 254.61,-112.36"/>
</g>
<!-- &#45;8135483071169533727 -->
<g id="node15" class="node">
<title>&#45;8135483071169533727</title>
<ellipse fill="none" stroke="black" cx="258.11" cy="-276.17" rx="80.11" ry="80.11"/>
<text text-anchor="middle" x="258.11" y="-270.37" font-family="Helvetica,sans-Serif" font-size="14.00">to_pyarrow_string</text>
</g>
<!-- 312951075184987025&#45;&gt;&#45;8135483071169533727 -->
<g id="edge10" class="edge">
<title>312951075184987025&#45;&gt;&#45;8135483071169533727</title>
<path fill="none" stroke="black" d="M258.11,-160.34C258.11,-167.1 258.11,-175.4 258.11,-184.42"/>
<polygon fill="black" stroke="black" points="254.61,-184.22 258.11,-194.22 261.61,-184.22 254.61,-184.22"/>
</g>
<!-- &#45;1102500011605602925 -->
<g id="node5" class="node">
<title>&#45;1102500011605602925</title>
<ellipse fill="none" stroke="black" cx="436.11" cy="-44.03" rx="44.03" ry="44.03"/>
<text text-anchor="middle" x="436.11" y="-38.23" font-family="Helvetica,sans-Serif" font-size="14.00">read&#45;csv</text>
</g>
<!-- &#45;8978480336772077469 -->
<g id="node6" class="node">
<title>&#45;8978480336772077469</title>
<polygon fill="none" stroke="black" points="463.11,-160.07 409.11,-160.07 409.11,-124.07 463.11,-124.07 463.11,-160.07"/>
<text text-anchor="middle" x="436.11" y="-136.27" font-family="Helvetica,sans-Serif" font-size="14.00">2</text>
</g>
<!-- &#45;1102500011605602925&#45;&gt;&#45;8978480336772077469 -->
<g id="edge3" class="edge">
<title>&#45;1102500011605602925&#45;&gt;&#45;8978480336772077469</title>
<path fill="none" stroke="black" d="M436.11,-88.55C436.11,-96.66 436.11,-104.95 436.11,-112.46"/>
<polygon fill="black" stroke="black" points="432.61,-112.36 436.11,-122.36 439.61,-112.36 432.61,-112.36"/>
</g>
<!-- &#45;1050760860597841152 -->
<g id="node17" class="node">
<title>&#45;1050760860597841152</title>
<ellipse fill="none" stroke="black" cx="436.11" cy="-276.17" rx="80.11" ry="80.11"/>
<text text-anchor="middle" x="436.11" y="-270.37" font-family="Helvetica,sans-Serif" font-size="14.00">to_pyarrow_string</text>
</g>
<!-- &#45;8978480336772077469&#45;&gt;&#45;1050760860597841152 -->
<g id="edge12" class="edge">
<title>&#45;8978480336772077469&#45;&gt;&#45;1050760860597841152</title>
<path fill="none" stroke="black" d="M436.11,-160.34C436.11,-167.1 436.11,-175.4 436.11,-184.42"/>
<polygon fill="black" stroke="black" points="432.61,-184.22 436.11,-194.22 439.61,-184.22 432.61,-184.22"/>
</g>
<!-- &#45;1906626916754175967 -->
<g id="node7" class="node">
<title>&#45;1906626916754175967</title>
<ellipse fill="none" stroke="black" cx="614.11" cy="-44.03" rx="44.03" ry="44.03"/>
<text text-anchor="middle" x="614.11" y="-38.23" font-family="Helvetica,sans-Serif" font-size="14.00">read&#45;csv</text>
</g>
<!-- &#45;2470839580670079044 -->
<g id="node8" class="node">
<title>&#45;2470839580670079044</title>
<polygon fill="none" stroke="black" points="641.11,-160.07 587.11,-160.07 587.11,-124.07 641.11,-124.07 641.11,-160.07"/>
<text text-anchor="middle" x="614.11" y="-136.27" font-family="Helvetica,sans-Serif" font-size="14.00">3</text>
</g>
<!-- &#45;1906626916754175967&#45;&gt;&#45;2470839580670079044 -->
<g id="edge4" class="edge">
<title>&#45;1906626916754175967&#45;&gt;&#45;2470839580670079044</title>
<path fill="none" stroke="black" d="M614.11,-88.55C614.11,-96.66 614.11,-104.95 614.11,-112.46"/>
<polygon fill="black" stroke="black" points="610.61,-112.36 614.11,-122.36 617.61,-112.36 610.61,-112.36"/>
</g>
<!-- 4071937302134756076 -->
<g id="node19" class="node">
<title>4071937302134756076</title>
<ellipse fill="none" stroke="black" cx="614.11" cy="-276.17" rx="80.11" ry="80.11"/>
<text text-anchor="middle" x="614.11" y="-270.37" font-family="Helvetica,sans-Serif" font-size="14.00">to_pyarrow_string</text>
</g>
<!-- &#45;2470839580670079044&#45;&gt;4071937302134756076 -->
<g id="edge14" class="edge">
<title>&#45;2470839580670079044&#45;&gt;4071937302134756076</title>
<path fill="none" stroke="black" d="M614.11,-160.34C614.11,-167.1 614.11,-175.4 614.11,-184.42"/>
<polygon fill="black" stroke="black" points="610.61,-184.22 614.11,-194.22 617.61,-184.22 610.61,-184.22"/>
</g>
<!-- 5178095293817516608 -->
<g id="node9" class="node">
<title>5178095293817516608</title>
<ellipse fill="none" stroke="black" cx="792.11" cy="-44.03" rx="44.03" ry="44.03"/>
<text text-anchor="middle" x="792.11" y="-38.23" font-family="Helvetica,sans-Serif" font-size="14.00">read&#45;csv</text>
</g>
<!-- 4036801175431919381 -->
<g id="node10" class="node">
<title>4036801175431919381</title>
<polygon fill="none" stroke="black" points="819.11,-160.07 765.11,-160.07 765.11,-124.07 819.11,-124.07 819.11,-160.07"/>
<text text-anchor="middle" x="792.11" y="-136.27" font-family="Helvetica,sans-Serif" font-size="14.00">4</text>
</g>
<!-- 5178095293817516608&#45;&gt;4036801175431919381 -->
<g id="edge5" class="edge">
<title>5178095293817516608&#45;&gt;4036801175431919381</title>
<path fill="none" stroke="black" d="M792.11,-88.55C792.11,-96.66 792.11,-104.95 792.11,-112.46"/>
<polygon fill="black" stroke="black" points="788.61,-112.36 792.11,-122.36 795.61,-112.36 788.61,-112.36"/>
</g>
<!-- 8508987607055959954 -->
<g id="node21" class="node">
<title>8508987607055959954</title>
<ellipse fill="none" stroke="black" cx="792.11" cy="-276.17" rx="80.11" ry="80.11"/>
<text text-anchor="middle" x="792.11" y="-270.37" font-family="Helvetica,sans-Serif" font-size="14.00">to_pyarrow_string</text>
</g>
<!-- 4036801175431919381&#45;&gt;8508987607055959954 -->
<g id="edge16" class="edge">
<title>4036801175431919381&#45;&gt;8508987607055959954</title>
<path fill="none" stroke="black" d="M792.11,-160.34C792.11,-167.1 792.11,-175.4 792.11,-184.42"/>
<polygon fill="black" stroke="black" points="788.61,-184.22 792.11,-194.22 795.61,-184.22 788.61,-184.22"/>
</g>
<!-- &#45;9029329607453142400 -->
<g id="node11" class="node">
<title>&#45;9029329607453142400</title>
<ellipse fill="none" stroke="black" cx="970.11" cy="-44.03" rx="44.03" ry="44.03"/>
<text text-anchor="middle" x="970.11" y="-38.23" font-family="Helvetica,sans-Serif" font-size="14.00">read&#45;csv</text>
</g>
<!-- &#45;856272853540776985 -->
<g id="node12" class="node">
<title>&#45;856272853540776985</title>
<polygon fill="none" stroke="black" points="997.11,-160.07 943.11,-160.07 943.11,-124.07 997.11,-124.07 997.11,-160.07"/>
<text text-anchor="middle" x="970.11" y="-136.27" font-family="Helvetica,sans-Serif" font-size="14.00">5</text>
</g>
<!-- &#45;9029329607453142400&#45;&gt;&#45;856272853540776985 -->
<g id="edge6" class="edge">
<title>&#45;9029329607453142400&#45;&gt;&#45;856272853540776985</title>
<path fill="none" stroke="black" d="M970.11,-88.55C970.11,-96.66 970.11,-104.95 970.11,-112.46"/>
<polygon fill="black" stroke="black" points="966.61,-112.36 970.11,-122.36 973.61,-112.36 966.61,-112.36"/>
</g>
<!-- &#45;2363636268343853305 -->
<g id="node23" class="node">
<title>&#45;2363636268343853305</title>
<ellipse fill="none" stroke="black" cx="970.11" cy="-276.17" rx="80.11" ry="80.11"/>
<text text-anchor="middle" x="970.11" y="-270.37" font-family="Helvetica,sans-Serif" font-size="14.00">to_pyarrow_string</text>
</g>
<!-- &#45;856272853540776985&#45;&gt;&#45;2363636268343853305 -->
<g id="edge18" class="edge">
<title>&#45;856272853540776985&#45;&gt;&#45;2363636268343853305</title>
<path fill="none" stroke="black" d="M970.11,-160.34C970.11,-167.1 970.11,-175.4 970.11,-184.42"/>
<polygon fill="black" stroke="black" points="966.61,-184.22 970.11,-194.22 973.61,-184.22 966.61,-184.22"/>
</g>
<!-- 8774990811659256194 -->
<g id="node14" class="node">
<title>8774990811659256194</title>
<polygon fill="none" stroke="black" points="107.11,-428.28 53.11,-428.28 53.11,-392.28 107.11,-392.28 107.11,-428.28"/>
<text text-anchor="middle" x="80.11" y="-404.48" font-family="Helvetica,sans-Serif" font-size="14.00">0</text>
</g>
<!-- 6071941830101125281&#45;&gt;8774990811659256194 -->
<g id="edge7" class="edge">
<title>6071941830101125281&#45;&gt;8774990811659256194</title>
<path fill="none" stroke="black" d="M80.11,-356.69C80.11,-365.23 80.11,-373.46 80.11,-380.77"/>
<polygon fill="black" stroke="black" points="76.61,-380.58 80.11,-390.58 83.61,-380.58 76.61,-380.58"/>
</g>
<!-- 3881916782686559828 -->
<g id="node16" class="node">
<title>3881916782686559828</title>
<polygon fill="none" stroke="black" points="285.11,-428.28 231.11,-428.28 231.11,-392.28 285.11,-392.28 285.11,-428.28"/>
<text text-anchor="middle" x="258.11" y="-404.48" font-family="Helvetica,sans-Serif" font-size="14.00">1</text>
</g>
<!-- &#45;8135483071169533727&#45;&gt;3881916782686559828 -->
<g id="edge9" class="edge">
<title>&#45;8135483071169533727&#45;&gt;3881916782686559828</title>
<path fill="none" stroke="black" d="M258.11,-356.69C258.11,-365.23 258.11,-373.46 258.11,-380.77"/>
<polygon fill="black" stroke="black" points="254.61,-380.58 258.11,-390.58 261.61,-380.58 254.61,-380.58"/>
</g>
<!-- &#45;8057186534920993363 -->
<g id="node18" class="node">
<title>&#45;8057186534920993363</title>
<polygon fill="none" stroke="black" points="463.11,-428.28 409.11,-428.28 409.11,-392.28 463.11,-392.28 463.11,-428.28"/>
<text text-anchor="middle" x="436.11" y="-404.48" font-family="Helvetica,sans-Serif" font-size="14.00">2</text>
</g>
<!-- &#45;1050760860597841152&#45;&gt;&#45;8057186534920993363 -->
<g id="edge11" class="edge">
<title>&#45;1050760860597841152&#45;&gt;&#45;8057186534920993363</title>
<path fill="none" stroke="black" d="M436.11,-356.69C436.11,-365.23 436.11,-373.46 436.11,-380.77"/>
<polygon fill="black" stroke="black" points="432.61,-380.58 436.11,-390.58 439.61,-380.58 432.61,-380.58"/>
</g>
<!-- 1098126126831493759 -->
<g id="node20" class="node">
<title>1098126126831493759</title>
<polygon fill="none" stroke="black" points="641.11,-428.28 587.11,-428.28 587.11,-392.28 641.11,-392.28 641.11,-428.28"/>
<text text-anchor="middle" x="614.11" y="-404.48" font-family="Helvetica,sans-Serif" font-size="14.00">3</text>
</g>
<!-- 4071937302134756076&#45;&gt;1098126126831493759 -->
<g id="edge13" class="edge">
<title>4071937302134756076&#45;&gt;1098126126831493759</title>
<path fill="none" stroke="black" d="M614.11,-356.69C614.11,-365.23 614.11,-373.46 614.11,-380.77"/>
<polygon fill="black" stroke="black" points="610.61,-380.58 614.11,-390.58 617.61,-380.58 610.61,-380.58"/>
</g>
<!-- 7605766882933492184 -->
<g id="node22" class="node">
<title>7605766882933492184</title>
<polygon fill="none" stroke="black" points="819.11,-428.28 765.11,-428.28 765.11,-392.28 819.11,-392.28 819.11,-428.28"/>
<text text-anchor="middle" x="792.11" y="-404.48" font-family="Helvetica,sans-Serif" font-size="14.00">4</text>
</g>
<!-- 8508987607055959954&#45;&gt;7605766882933492184 -->
<g id="edge15" class="edge">
<title>8508987607055959954&#45;&gt;7605766882933492184</title>
<path fill="none" stroke="black" d="M792.11,-356.69C792.11,-365.23 792.11,-373.46 792.11,-380.77"/>
<polygon fill="black" stroke="black" points="788.61,-380.58 792.11,-390.58 795.61,-380.58 788.61,-380.58"/>
</g>
<!-- &#45;4333336434674061007 -->
<g id="node24" class="node">
<title>&#45;4333336434674061007</title>
<polygon fill="none" stroke="black" points="997.11,-428.28 943.11,-428.28 943.11,-392.28 997.11,-392.28 997.11,-428.28"/>
<text text-anchor="middle" x="970.11" y="-404.48" font-family="Helvetica,sans-Serif" font-size="14.00">5</text>
</g>
<!-- &#45;2363636268343853305&#45;&gt;&#45;4333336434674061007 -->
<g id="edge17" class="edge">
<title>&#45;2363636268343853305&#45;&gt;&#45;4333336434674061007</title>
<path fill="none" stroke="black" d="M970.11,-356.69C970.11,-365.23 970.11,-373.46 970.11,-380.77"/>
<polygon fill="black" stroke="black" points="966.61,-380.58 970.11,-390.58 973.61,-380.58 966.61,-380.58"/>
</g>
</g>
</svg>
