<?xml version="1.0" encoding="UTF-8" standalone="no"?>
<!DOCTYPE svg PUBLIC "-//W3C//DTD SVG 1.1//EN"
 "http://www.w3.org/Graphics/SVG/1.1/DTD/svg11.dtd">
<!-- Generated by graphviz version 9.0.0 (20230911.1827)
 -->
<!-- Pages: 1 -->
<svg width="581pt" height="745pt"
 viewBox="0.00 0.00 581.35 744.57" xmlns="http://www.w3.org/2000/svg" xmlns:xlink="http://www.w3.org/1999/xlink">
<g id="graph0" class="graph" transform="scale(1 1) rotate(0) translate(4 740.57)">
<polygon fill="white" stroke="none" points="-4,4 -4,-740.57 577.35,-740.57 577.35,4 -4,4"/>
<!-- &#45;3138426597470725018 -->
<g id="node1" class="node">
<title>&#45;3138426597470725018</title>
<ellipse fill="none" stroke="black" cx="60.45" cy="-457.62" rx="25.02" ry="25.02"/>
<text text-anchor="middle" x="60.45" y="-451.82" font-family="Helvetica,sans-Serif" font-size="14.00">add</text>
</g>
<!-- &#45;5864466289403594345 -->
<g id="node2" class="node">
<title>&#45;5864466289403594345</title>
<polygon fill="none" stroke="black" points="87.45,-578.52 33.45,-578.52 33.45,-542.52 87.45,-542.52 87.45,-578.52"/>
<text text-anchor="middle" x="60.45" y="-554.72" font-family="Helvetica,sans-Serif" font-size="14.00">(0, 0)</text>
</g>
<!-- &#45;3138426597470725018&#45;&gt;&#45;5864466289403594345 -->
<g id="edge1" class="edge">
<title>&#45;3138426597470725018&#45;&gt;&#45;5864466289403594345</title>
<path fill="none" stroke="black" d="M60.45,-483.04C60.45,-497.49 60.45,-515.87 60.45,-530.99"/>
<polygon fill="black" stroke="black" points="56.95,-530.76 60.45,-540.76 63.95,-530.76 56.95,-530.76"/>
</g>
<!-- 4304291381788042618 -->
<g id="node3" class="node">
<title>4304291381788042618</title>
<polygon fill="none" stroke="black" points="74.45,-166.89 20.45,-166.89 20.45,-130.89 74.45,-130.89 74.45,-166.89"/>
<text text-anchor="middle" x="47.45" y="-143.09" font-family="Helvetica,sans-Serif" font-size="14.00">(0, 0)</text>
</g>
<!-- 4304291381788042618&#45;&gt;&#45;3138426597470725018 -->
<g id="edge2" class="edge">
<title>4304291381788042618&#45;&gt;&#45;3138426597470725018</title>
<path fill="none" stroke="black" d="M47.04,-167.08C46.81,-177.45 46.56,-190.93 46.45,-202.89 46.04,-246.36 44.5,-257.28 46.45,-300.71 48.3,-342.11 52.91,-389.52 56.34,-421.08"/>
<polygon fill="black" stroke="black" points="52.84,-421.3 57.42,-430.85 59.8,-420.53 52.84,-421.3"/>
</g>
<!-- 7722044686311958665 -->
<g id="node21" class="node">
<title>7722044686311958665</title>
<ellipse fill="none" stroke="black" cx="104.45" cy="-251.8" rx="48.91" ry="48.91"/>
<text text-anchor="middle" x="104.45" y="-246" font-family="Helvetica,sans-Serif" font-size="14.00">transpose</text>
</g>
<!-- 4304291381788042618&#45;&gt;7722044686311958665 -->
<g id="edge18" class="edge">
<title>4304291381788042618&#45;&gt;7722044686311958665</title>
<path fill="none" stroke="black" d="M57.12,-167.01C62.18,-175.97 68.67,-187.47 75.22,-199.06"/>
<polygon fill="black" stroke="black" points="71.99,-200.46 79.96,-207.45 78.09,-197.02 71.99,-200.46"/>
</g>
<!-- &#45;2083634544516398988 -->
<g id="node4" class="node">
<title>&#45;2083634544516398988</title>
<polygon fill="none" stroke="black" points="120.45,-372.71 66.45,-372.71 66.45,-336.71 120.45,-336.71 120.45,-372.71"/>
<text text-anchor="middle" x="93.45" y="-348.91" font-family="Helvetica,sans-Serif" font-size="14.00">(0, 0)</text>
</g>
<!-- &#45;2083634544516398988&#45;&gt;&#45;3138426597470725018 -->
<g id="edge3" class="edge">
<title>&#45;2083634544516398988&#45;&gt;&#45;3138426597470725018</title>
<path fill="none" stroke="black" d="M87.85,-372.83C83.38,-386.48 76.99,-406.03 71.5,-422.81"/>
<polygon fill="black" stroke="black" points="68.31,-421.32 68.53,-431.91 74.96,-423.49 68.31,-421.32"/>
</g>
<!-- 8738633998640994523 -->
<g id="node5" class="node">
<title>8738633998640994523</title>
<ellipse fill="none" stroke="black" cx="258.45" cy="-457.62" rx="25.02" ry="25.02"/>
<text text-anchor="middle" x="258.45" y="-451.82" font-family="Helvetica,sans-Serif" font-size="14.00">add</text>
</g>
<!-- &#45;3755182916285964048 -->
<g id="node6" class="node">
<title>&#45;3755182916285964048</title>
<polygon fill="none" stroke="black" points="285.45,-578.52 231.45,-578.52 231.45,-542.52 285.45,-542.52 285.45,-578.52"/>
<text text-anchor="middle" x="258.45" y="-554.72" font-family="Helvetica,sans-Serif" font-size="14.00">(0, 1)</text>
</g>
<!-- 8738633998640994523&#45;&gt;&#45;3755182916285964048 -->
<g id="edge4" class="edge">
<title>8738633998640994523&#45;&gt;&#45;3755182916285964048</title>
<path fill="none" stroke="black" d="M258.45,-483.04C258.45,-497.49 258.45,-515.87 258.45,-530.99"/>
<polygon fill="black" stroke="black" points="254.95,-530.76 258.45,-540.76 261.95,-530.76 254.95,-530.76"/>
</g>
<!-- &#45;7634811935819510573 -->
<g id="node7" class="node">
<title>&#45;7634811935819510573</title>
<polygon fill="none" stroke="black" points="377.45,-372.71 323.45,-372.71 323.45,-336.71 377.45,-336.71 377.45,-372.71"/>
<text text-anchor="middle" x="350.45" y="-348.91" font-family="Helvetica,sans-Serif" font-size="14.00">(0, 1)</text>
</g>
<!-- &#45;7634811935819510573&#45;&gt;8738633998640994523 -->
<g id="edge5" class="edge">
<title>&#45;7634811935819510573&#45;&gt;8738633998640994523</title>
<path fill="none" stroke="black" d="M329.3,-373.1C317.83,-383 303.74,-395.93 292.45,-408.71 287.57,-414.22 282.74,-420.44 278.32,-426.52"/>
<polygon fill="black" stroke="black" points="275.52,-424.41 272.63,-434.61 281.25,-428.44 275.52,-424.41"/>
</g>
<!-- 4645436577888629623 -->
<g id="node23" class="node">
<title>4645436577888629623</title>
<ellipse fill="none" stroke="black" cx="350.45" cy="-457.62" rx="48.91" ry="48.91"/>
<text text-anchor="middle" x="350.45" y="-451.82" font-family="Helvetica,sans-Serif" font-size="14.00">transpose</text>
</g>
<!-- &#45;7634811935819510573&#45;&gt;4645436577888629623 -->
<g id="edge22" class="edge">
<title>&#45;7634811935819510573&#45;&gt;4645436577888629623</title>
<path fill="none" stroke="black" d="M350.45,-372.83C350.45,-379.78 350.45,-388.27 350.45,-397.15"/>
<polygon fill="black" stroke="black" points="346.95,-396.99 350.45,-406.99 353.95,-396.99 346.95,-396.99"/>
</g>
<!-- &#45;6976708573489095354 -->
<g id="node8" class="node">
<title>&#45;6976708573489095354</title>
<polygon fill="none" stroke="black" points="285.45,-372.71 231.45,-372.71 231.45,-336.71 285.45,-336.71 285.45,-372.71"/>
<text text-anchor="middle" x="258.45" y="-348.91" font-family="Helvetica,sans-Serif" font-size="14.00">(0, 1)</text>
</g>
<!-- &#45;6976708573489095354&#45;&gt;8738633998640994523 -->
<g id="edge6" class="edge">
<title>&#45;6976708573489095354&#45;&gt;8738633998640994523</title>
<path fill="none" stroke="black" d="M258.45,-372.83C258.45,-385.95 258.45,-404.51 258.45,-420.84"/>
<polygon fill="black" stroke="black" points="254.95,-420.7 258.45,-430.7 261.95,-420.7 254.95,-420.7"/>
</g>
<!-- &#45;7092835907620899183 -->
<g id="node9" class="node">
<title>&#45;7092835907620899183</title>
<ellipse fill="none" stroke="black" cx="265.45" cy="-639.55" rx="25.02" ry="25.02"/>
<text text-anchor="middle" x="265.45" y="-633.75" font-family="Helvetica,sans-Serif" font-size="14.00">add</text>
</g>
<!-- &#45;412675020423574421 -->
<g id="node10" class="node">
<title>&#45;412675020423574421</title>
<polygon fill="none" stroke="black" points="292.45,-736.57 238.45,-736.57 238.45,-700.57 292.45,-700.57 292.45,-736.57"/>
<text text-anchor="middle" x="265.45" y="-712.77" font-family="Helvetica,sans-Serif" font-size="14.00">(1, 0)</text>
</g>
<!-- &#45;7092835907620899183&#45;&gt;&#45;412675020423574421 -->
<g id="edge7" class="edge">
<title>&#45;7092835907620899183&#45;&gt;&#45;412675020423574421</title>
<path fill="none" stroke="black" d="M265.45,-664.92C265.45,-672.53 265.45,-680.99 265.45,-688.87"/>
<polygon fill="black" stroke="black" points="261.95,-688.67 265.45,-698.67 268.95,-688.67 261.95,-688.67"/>
</g>
<!-- 7766514107447989064 -->
<g id="node11" class="node">
<title>7766514107447989064</title>
<polygon fill="none" stroke="black" points="367.45,-578.52 313.45,-578.52 313.45,-542.52 367.45,-542.52 367.45,-578.52"/>
<text text-anchor="middle" x="340.45" y="-554.72" font-family="Helvetica,sans-Serif" font-size="14.00">(1, 0)</text>
</g>
<!-- 7766514107447989064&#45;&gt;&#45;7092835907620899183 -->
<g id="edge8" class="edge">
<title>7766514107447989064&#45;&gt;&#45;7092835907620899183</title>
<path fill="none" stroke="black" d="M323.43,-579C313.72,-588.98 301.36,-601.67 290.55,-612.77"/>
<polygon fill="black" stroke="black" points="288.18,-610.18 283.71,-619.79 293.2,-615.06 288.18,-610.18"/>
</g>
<!-- &#45;4292304039957120946 -->
<g id="node12" class="node">
<title>&#45;4292304039957120946</title>
<polygon fill="none" stroke="black" points="246.45,-166.89 192.45,-166.89 192.45,-130.89 246.45,-130.89 246.45,-166.89"/>
<text text-anchor="middle" x="219.45" y="-143.09" font-family="Helvetica,sans-Serif" font-size="14.00">(1, 0)</text>
</g>
<!-- &#45;4292304039957120946&#45;&gt;&#45;7092835907620899183 -->
<g id="edge9" class="edge">
<title>&#45;4292304039957120946&#45;&gt;&#45;7092835907620899183</title>
<path fill="none" stroke="black" d="M212.13,-167.27C208.11,-177.47 203.36,-190.72 200.45,-202.89 184.73,-268.6 181.45,-286.15 181.45,-353.71 181.45,-353.71 181.45,-353.71 181.45,-458.62 181.45,-517.07 218.3,-577.03 243.18,-610.85"/>
<polygon fill="black" stroke="black" points="240.11,-612.59 248.93,-618.47 245.7,-608.38 240.11,-612.59"/>
</g>
<!-- 7563006475766483145 -->
<g id="node22" class="node">
<title>7563006475766483145</title>
<ellipse fill="none" stroke="black" cx="258.45" cy="-251.8" rx="48.91" ry="48.91"/>
<text text-anchor="middle" x="258.45" y="-246" font-family="Helvetica,sans-Serif" font-size="14.00">transpose</text>
</g>
<!-- &#45;4292304039957120946&#45;&gt;7563006475766483145 -->
<g id="edge20" class="edge">
<title>&#45;4292304039957120946&#45;&gt;7563006475766483145</title>
<path fill="none" stroke="black" d="M226.06,-167.01C229.13,-174.94 232.96,-184.86 236.9,-195.07"/>
<polygon fill="black" stroke="black" points="233.61,-196.26 240.48,-204.33 240.14,-193.74 233.61,-196.26"/>
</g>
<!-- &#45;7054142985684063433 -->
<g id="node13" class="node">
<title>&#45;7054142985684063433</title>
<ellipse fill="none" stroke="black" cx="480.45" cy="-457.62" rx="25.02" ry="25.02"/>
<text text-anchor="middle" x="480.45" y="-451.82" font-family="Helvetica,sans-Serif" font-size="14.00">add</text>
</g>
<!-- 6094965735678424004 -->
<g id="node14" class="node">
<title>6094965735678424004</title>
<polygon fill="none" stroke="black" points="507.45,-578.52 453.45,-578.52 453.45,-542.52 507.45,-542.52 507.45,-578.52"/>
<text text-anchor="middle" x="480.45" y="-554.72" font-family="Helvetica,sans-Serif" font-size="14.00">(1, 1)</text>
</g>
<!-- &#45;7054142985684063433&#45;&gt;6094965735678424004 -->
<g id="edge10" class="edge">
<title>&#45;7054142985684063433&#45;&gt;6094965735678424004</title>
<path fill="none" stroke="black" d="M480.45,-483.04C480.45,-497.49 480.45,-515.87 480.45,-530.99"/>
<polygon fill="black" stroke="black" points="476.95,-530.76 480.45,-540.76 483.95,-530.76 476.95,-530.76"/>
</g>
<!-- &#45;4172589210159564127 -->
<g id="node15" class="node">
<title>&#45;4172589210159564127</title>
<polygon fill="none" stroke="black" points="540.45,-372.71 486.45,-372.71 486.45,-336.71 540.45,-336.71 540.45,-372.71"/>
<text text-anchor="middle" x="513.45" y="-348.91" font-family="Helvetica,sans-Serif" font-size="14.00">(1, 1)</text>
</g>
<!-- &#45;4172589210159564127&#45;&gt;&#45;7054142985684063433 -->
<g id="edge11" class="edge">
<title>&#45;4172589210159564127&#45;&gt;&#45;7054142985684063433</title>
<path fill="none" stroke="black" d="M507.85,-372.83C503.38,-386.48 496.99,-406.03 491.5,-422.81"/>
<polygon fill="black" stroke="black" points="488.31,-421.32 488.53,-431.91 494.96,-423.49 488.31,-421.32"/>
</g>
<!-- &#45;2183020666839490649 -->
<g id="node16" class="node">
<title>&#45;2183020666839490649</title>
<polygon fill="none" stroke="black" points="512.45,-166.89 458.45,-166.89 458.45,-130.89 512.45,-130.89 512.45,-166.89"/>
<text text-anchor="middle" x="485.45" y="-143.09" font-family="Helvetica,sans-Serif" font-size="14.00">(1, 1)</text>
</g>
<!-- &#45;2183020666839490649&#45;&gt;&#45;7054142985684063433 -->
<g id="edge12" class="edge">
<title>&#45;2183020666839490649&#45;&gt;&#45;7054142985684063433</title>
<path fill="none" stroke="black" d="M477.55,-167.15C473.34,-177.31 468.59,-190.56 466.45,-202.89 453.04,-279.99 464.93,-372.05 473.5,-421.33"/>
<polygon fill="black" stroke="black" points="470.05,-421.91 475.27,-431.13 476.94,-420.67 470.05,-421.91"/>
</g>
<!-- &#45;986010087441406716 -->
<g id="node24" class="node">
<title>&#45;986010087441406716</title>
<ellipse fill="none" stroke="black" cx="524.45" cy="-251.8" rx="48.91" ry="48.91"/>
<text text-anchor="middle" x="524.45" y="-246" font-family="Helvetica,sans-Serif" font-size="14.00">transpose</text>
</g>
<!-- &#45;2183020666839490649&#45;&gt;&#45;986010087441406716 -->
<g id="edge24" class="edge">
<title>&#45;2183020666839490649&#45;&gt;&#45;986010087441406716</title>
<path fill="none" stroke="black" d="M492.06,-167.01C495.13,-174.94 498.96,-184.86 502.9,-195.07"/>
<polygon fill="black" stroke="black" points="499.61,-196.26 506.48,-204.33 506.14,-193.74 499.61,-196.26"/>
</g>
<!-- &#45;9298035712203410 -->
<g id="node17" class="node">
<title>&#45;9298035712203410</title>
<ellipse fill="none" stroke="black" cx="47.45" cy="-47.45" rx="47.45" ry="47.45"/>
<text text-anchor="middle" x="47.45" y="-41.65" font-family="Helvetica,sans-Serif" font-size="14.00">ones_like</text>
</g>
<!-- &#45;9298035712203410&#45;&gt;4304291381788042618 -->
<g id="edge13" class="edge">
<title>&#45;9298035712203410&#45;&gt;4304291381788042618</title>
<path fill="none" stroke="black" d="M47.45,-95.26C47.45,-103.49 47.45,-111.83 47.45,-119.37"/>
<polygon fill="black" stroke="black" points="43.95,-119.26 47.45,-129.27 50.95,-119.27 43.95,-119.26"/>
</g>
<!-- &#45;5211782323845144580 -->
<g id="node18" class="node">
<title>&#45;5211782323845144580</title>
<ellipse fill="none" stroke="black" cx="372.45" cy="-251.8" rx="47.45" ry="47.45"/>
<text text-anchor="middle" x="372.45" y="-246" font-family="Helvetica,sans-Serif" font-size="14.00">ones_like</text>
</g>
<!-- &#45;5211782323845144580&#45;&gt;&#45;7634811935819510573 -->
<g id="edge14" class="edge">
<title>&#45;5211782323845144580&#45;&gt;&#45;7634811935819510573</title>
<path fill="none" stroke="black" d="M362.48,-298.53C360.47,-307.75 358.41,-317.17 356.58,-325.57"/>
<polygon fill="black" stroke="black" points="353.2,-324.62 354.49,-335.14 360.04,-326.12 353.2,-324.62"/>
</g>
<!-- &#45;1753688329312077878 -->
<g id="node19" class="node">
<title>&#45;1753688329312077878</title>
<ellipse fill="none" stroke="black" cx="219.45" cy="-47.45" rx="47.45" ry="47.45"/>
<text text-anchor="middle" x="219.45" y="-41.65" font-family="Helvetica,sans-Serif" font-size="14.00">ones_like</text>
</g>
<!-- &#45;1753688329312077878&#45;&gt;&#45;4292304039957120946 -->
<g id="edge15" class="edge">
<title>&#45;1753688329312077878&#45;&gt;&#45;4292304039957120946</title>
<path fill="none" stroke="black" d="M219.45,-95.26C219.45,-103.49 219.45,-111.83 219.45,-119.37"/>
<polygon fill="black" stroke="black" points="215.95,-119.26 219.45,-129.27 222.95,-119.27 215.95,-119.26"/>
</g>
<!-- &#45;9166191633995318745 -->
<g id="node20" class="node">
<title>&#45;9166191633995318745</title>
<ellipse fill="none" stroke="black" cx="485.45" cy="-47.45" rx="47.45" ry="47.45"/>
<text text-anchor="middle" x="485.45" y="-41.65" font-family="Helvetica,sans-Serif" font-size="14.00">ones_like</text>
</g>
<!-- &#45;9166191633995318745&#45;&gt;&#45;2183020666839490649 -->
<g id="edge16" class="edge">
<title>&#45;9166191633995318745&#45;&gt;&#45;2183020666839490649</title>
<path fill="none" stroke="black" d="M485.45,-95.26C485.45,-103.49 485.45,-111.83 485.45,-119.37"/>
<polygon fill="black" stroke="black" points="481.95,-119.26 485.45,-129.27 488.95,-119.27 481.95,-119.26"/>
</g>
<!-- 7722044686311958665&#45;&gt;&#45;2083634544516398988 -->
<g id="edge17" class="edge">
<title>7722044686311958665&#45;&gt;&#45;2083634544516398988</title>
<path fill="none" stroke="black" d="M99.2,-300.89C98.3,-309.18 97.39,-317.56 96.56,-325.13"/>
<polygon fill="black" stroke="black" points="93.08,-324.75 95.48,-335.07 100.04,-325.51 93.08,-324.75"/>
</g>
<!-- 7563006475766483145&#45;&gt;&#45;6976708573489095354 -->
<g id="edge19" class="edge">
<title>7563006475766483145&#45;&gt;&#45;6976708573489095354</title>
<path fill="none" stroke="black" d="M258.45,-301.18C258.45,-309.32 258.45,-317.52 258.45,-324.96"/>
<polygon fill="black" stroke="black" points="254.95,-324.71 258.45,-334.71 261.95,-324.71 254.95,-324.71"/>
</g>
<!-- 4645436577888629623&#45;&gt;7766514107447989064 -->
<g id="edge21" class="edge">
<title>4645436577888629623&#45;&gt;7766514107447989064</title>
<path fill="none" stroke="black" d="M345.68,-506.71C344.86,-515 344.03,-523.38 343.28,-530.95"/>
<polygon fill="black" stroke="black" points="339.8,-530.59 342.29,-540.89 346.76,-531.28 339.8,-530.59"/>
</g>
<!-- &#45;986010087441406716&#45;&gt;&#45;4172589210159564127 -->
<g id="edge23" class="edge">
<title>&#45;986010087441406716&#45;&gt;&#45;4172589210159564127</title>
<path fill="none" stroke="black" d="M519.2,-300.89C518.3,-309.18 517.39,-317.56 516.56,-325.13"/>
<polygon fill="black" stroke="black" points="513.08,-324.75 515.48,-335.07 520.04,-325.51 513.08,-324.75"/>
</g>
</g>
</svg>
