<?xml version="1.0" encoding="UTF-8" standalone="no"?>
<!DOCTYPE svg PUBLIC "-//W3C//DTD SVG 1.1//EN"
 "http://www.w3.org/Graphics/SVG/1.1/DTD/svg11.dtd">
<!-- Generated by graphviz version 2.48.0 (20210717.1556)
 -->
<!-- Pages: 1 -->
<svg width="599pt" height="758pt"
 viewBox="0.00 0.00 599.09 757.57" xmlns="http://www.w3.org/2000/svg" xmlns:xlink="http://www.w3.org/1999/xlink">
<g id="graph0" class="graph" transform="scale(1 1) rotate(0) translate(4 753.57)">
<polygon fill="white" stroke="transparent" points="-4,4 -4,-753.57 595.09,-753.57 595.09,4 -4,4"/>
<!-- &#45;7891076627711661622 -->
<g id="node1" class="node">
<title>&#45;7891076627711661622</title>
<ellipse fill="none" stroke="black" cx="63.4" cy="-466.88" rx="26" ry="26"/>
<text text-anchor="middle" x="63.4" y="-463.18" font-family="Helvetica,sans-Serif" font-size="14.00">add</text>
</g>
<!-- &#45;4961793969170317195 -->
<g id="node2" class="node">
<title>&#45;4961793969170317195</title>
<polygon fill="none" stroke="black" points="90.4,-589.57 36.4,-589.57 36.4,-553.57 90.4,-553.57 90.4,-589.57"/>
<text text-anchor="middle" x="63.4" y="-567.87" font-family="Helvetica,sans-Serif" font-size="14.00">(0, 0)</text>
</g>
<!-- &#45;7891076627711661622&#45;&gt;&#45;4961793969170317195 -->
<g id="edge1" class="edge">
<title>&#45;7891076627711661622&#45;&gt;&#45;4961793969170317195</title>
<path fill="none" stroke="black" d="M63.4,-493C63.4,-508.25 63.4,-527.71 63.4,-543.32"/>
<polygon fill="black" stroke="black" points="59.9,-543.42 63.4,-553.42 66.9,-543.42 59.9,-543.42"/>
</g>
<!-- 5102529294994548060 -->
<g id="node3" class="node">
<title>5102529294994548060</title>
<polygon fill="none" stroke="black" points="123.4,-380.18 69.4,-380.18 69.4,-344.18 123.4,-344.18 123.4,-380.18"/>
<text text-anchor="middle" x="96.4" y="-358.48" font-family="Helvetica,sans-Serif" font-size="14.00">(0, 0)</text>
</g>
<!-- 5102529294994548060&#45;&gt;&#45;7891076627711661622 -->
<g id="edge2" class="edge">
<title>5102529294994548060&#45;&gt;&#45;7891076627711661622</title>
<path fill="none" stroke="black" d="M90.8,-380.6C86.28,-394.67 79.78,-414.88 74.25,-432.09"/>
<polygon fill="black" stroke="black" points="70.86,-431.22 71.13,-441.81 77.52,-433.36 70.86,-431.22"/>
</g>
<!-- &#45;13318638025341313 -->
<g id="node4" class="node">
<title>&#45;13318638025341313</title>
<polygon fill="none" stroke="black" points="76.4,-170.79 22.4,-170.79 22.4,-134.79 76.4,-134.79 76.4,-170.79"/>
<text text-anchor="middle" x="49.4" y="-149.09" font-family="Helvetica,sans-Serif" font-size="14.00">(0, 0)</text>
</g>
<!-- &#45;13318638025341313&#45;&gt;&#45;7891076627711661622 -->
<g id="edge3" class="edge">
<title>&#45;13318638025341313&#45;&gt;&#45;7891076627711661622</title>
<path fill="none" stroke="black" d="M48.99,-170.98C48.76,-181.35 48.51,-194.83 48.4,-206.79 47.97,-251.85 46.26,-263.17 48.4,-308.18 50.4,-350.39 55.4,-398.73 59.08,-430.64"/>
<polygon fill="black" stroke="black" points="55.63,-431.28 60.27,-440.8 62.58,-430.46 55.63,-431.28"/>
</g>
<!-- &#45;4527801337030193357 -->
<g id="node21" class="node">
<title>&#45;4527801337030193357</title>
<ellipse fill="none" stroke="black" cx="108.4" cy="-257.49" rx="50.89" ry="50.89"/>
<text text-anchor="middle" x="108.4" y="-253.79" font-family="Helvetica,sans-Serif" font-size="14.00">transpose</text>
</g>
<!-- &#45;13318638025341313&#45;&gt;&#45;4527801337030193357 -->
<g id="edge18" class="edge">
<title>&#45;13318638025341313&#45;&gt;&#45;4527801337030193357</title>
<path fill="none" stroke="black" d="M59.4,-171.21C64.75,-180.51 71.64,-192.5 78.55,-204.54"/>
<polygon fill="black" stroke="black" points="75.55,-206.34 83.57,-213.27 81.62,-202.86 75.55,-206.34"/>
</g>
<!-- &#45;8927916039983982265 -->
<g id="node5" class="node">
<title>&#45;8927916039983982265</title>
<ellipse fill="none" stroke="black" cx="266.4" cy="-466.88" rx="26" ry="26"/>
<text text-anchor="middle" x="266.4" y="-463.18" font-family="Helvetica,sans-Serif" font-size="14.00">add</text>
</g>
<!-- 4193518692582169927 -->
<g id="node6" class="node">
<title>4193518692582169927</title>
<polygon fill="none" stroke="black" points="293.4,-589.57 239.4,-589.57 239.4,-553.57 293.4,-553.57 293.4,-589.57"/>
<text text-anchor="middle" x="266.4" y="-567.87" font-family="Helvetica,sans-Serif" font-size="14.00">(0, 1)</text>
</g>
<!-- &#45;8927916039983982265&#45;&gt;4193518692582169927 -->
<g id="edge4" class="edge">
<title>&#45;8927916039983982265&#45;&gt;4193518692582169927</title>
<path fill="none" stroke="black" d="M266.4,-493C266.4,-508.25 266.4,-527.71 266.4,-543.32"/>
<polygon fill="black" stroke="black" points="262.9,-543.42 266.4,-553.42 269.9,-543.42 262.9,-543.42"/>
</g>
<!-- &#45;4906392666998037679 -->
<g id="node7" class="node">
<title>&#45;4906392666998037679</title>
<polygon fill="none" stroke="black" points="388.4,-380.18 334.4,-380.18 334.4,-344.18 388.4,-344.18 388.4,-380.18"/>
<text text-anchor="middle" x="361.4" y="-358.48" font-family="Helvetica,sans-Serif" font-size="14.00">(0, 1)</text>
</g>
<!-- &#45;4906392666998037679&#45;&gt;&#45;8927916039983982265 -->
<g id="edge5" class="edge">
<title>&#45;4906392666998037679&#45;&gt;&#45;8927916039983982265</title>
<path fill="none" stroke="black" d="M339.73,-380.21C327.8,-390.09 313.08,-403.14 301.4,-416.18 295.95,-422.26 290.6,-429.2 285.79,-435.93"/>
<polygon fill="black" stroke="black" points="282.83,-434.05 280.01,-444.26 288.58,-438.04 282.83,-434.05"/>
</g>
<!-- &#45;3759952566097816641 -->
<g id="node23" class="node">
<title>&#45;3759952566097816641</title>
<ellipse fill="none" stroke="black" cx="361.4" cy="-466.88" rx="50.89" ry="50.89"/>
<text text-anchor="middle" x="361.4" y="-463.18" font-family="Helvetica,sans-Serif" font-size="14.00">transpose</text>
</g>
<!-- &#45;4906392666998037679&#45;&gt;&#45;3759952566097816641 -->
<g id="edge22" class="edge">
<title>&#45;4906392666998037679&#45;&gt;&#45;3759952566097816641</title>
<path fill="none" stroke="black" d="M361.4,-380.6C361.4,-387.83 361.4,-396.68 361.4,-405.92"/>
<polygon fill="black" stroke="black" points="357.9,-406.03 361.4,-416.03 364.9,-406.03 357.9,-406.03"/>
</g>
<!-- &#45;6836574022613005131 -->
<g id="node8" class="node">
<title>&#45;6836574022613005131</title>
<polygon fill="none" stroke="black" points="293.4,-380.18 239.4,-380.18 239.4,-344.18 293.4,-344.18 293.4,-380.18"/>
<text text-anchor="middle" x="266.4" y="-358.48" font-family="Helvetica,sans-Serif" font-size="14.00">(0, 1)</text>
</g>
<!-- &#45;6836574022613005131&#45;&gt;&#45;8927916039983982265 -->
<g id="edge6" class="edge">
<title>&#45;6836574022613005131&#45;&gt;&#45;8927916039983982265</title>
<path fill="none" stroke="black" d="M266.4,-380.6C266.4,-394.25 266.4,-413.69 266.4,-430.56"/>
<polygon fill="black" stroke="black" points="262.9,-430.66 266.4,-440.66 269.9,-430.66 262.9,-430.66"/>
</g>
<!-- 3436763942680217735 -->
<g id="node9" class="node">
<title>3436763942680217735</title>
<ellipse fill="none" stroke="black" cx="274.4" cy="-651.57" rx="26" ry="26"/>
<text text-anchor="middle" x="274.4" y="-647.87" font-family="Helvetica,sans-Serif" font-size="14.00">add</text>
</g>
<!-- 5377752670532116639 -->
<g id="node10" class="node">
<title>5377752670532116639</title>
<polygon fill="none" stroke="black" points="301.4,-749.57 247.4,-749.57 247.4,-713.57 301.4,-713.57 301.4,-749.57"/>
<text text-anchor="middle" x="274.4" y="-727.87" font-family="Helvetica,sans-Serif" font-size="14.00">(1, 0)</text>
</g>
<!-- 3436763942680217735&#45;&gt;5377752670532116639 -->
<g id="edge7" class="edge">
<title>3436763942680217735&#45;&gt;5377752670532116639</title>
<path fill="none" stroke="black" d="M274.4,-677.68C274.4,-685.73 274.4,-694.69 274.4,-702.91"/>
<polygon fill="black" stroke="black" points="270.9,-703.16 274.4,-713.16 277.9,-703.16 270.9,-703.16"/>
</g>
<!-- &#45;8120516072032459095 -->
<g id="node11" class="node">
<title>&#45;8120516072032459095</title>
<polygon fill="none" stroke="black" points="253.4,-170.79 199.4,-170.79 199.4,-134.79 253.4,-134.79 253.4,-170.79"/>
<text text-anchor="middle" x="226.4" y="-149.09" font-family="Helvetica,sans-Serif" font-size="14.00">(1, 0)</text>
</g>
<!-- &#45;8120516072032459095&#45;&gt;3436763942680217735 -->
<g id="edge8" class="edge">
<title>&#45;8120516072032459095&#45;&gt;3436763942680217735</title>
<path fill="none" stroke="black" d="M218.65,-171.12C214.41,-181.32 209.41,-194.57 206.4,-206.79 189.85,-273.92 187.4,-292.05 187.4,-361.18 187.4,-361.18 187.4,-361.18 187.4,-467.88 187.4,-527.79 226.01,-588.96 251.79,-623.12"/>
<polygon fill="black" stroke="black" points="249.15,-625.43 258.03,-631.21 254.69,-621.15 249.15,-625.43"/>
</g>
<!-- &#45;5331928242178766399 -->
<g id="node22" class="node">
<title>&#45;5331928242178766399</title>
<ellipse fill="none" stroke="black" cx="266.4" cy="-257.49" rx="50.89" ry="50.89"/>
<text text-anchor="middle" x="266.4" y="-253.79" font-family="Helvetica,sans-Serif" font-size="14.00">transpose</text>
</g>
<!-- &#45;8120516072032459095&#45;&gt;&#45;5331928242178766399 -->
<g id="edge20" class="edge">
<title>&#45;8120516072032459095&#45;&gt;&#45;5331928242178766399</title>
<path fill="none" stroke="black" d="M233.18,-171.21C236.39,-179.44 240.41,-189.78 244.55,-200.39"/>
<polygon fill="black" stroke="black" points="241.3,-201.7 248.19,-209.74 247.82,-199.15 241.3,-201.7"/>
</g>
<!-- 7063828831238670495 -->
<g id="node12" class="node">
<title>7063828831238670495</title>
<polygon fill="none" stroke="black" points="377.4,-589.57 323.4,-589.57 323.4,-553.57 377.4,-553.57 377.4,-589.57"/>
<text text-anchor="middle" x="350.4" y="-567.87" font-family="Helvetica,sans-Serif" font-size="14.00">(1, 0)</text>
</g>
<!-- 7063828831238670495&#45;&gt;3436763942680217735 -->
<g id="edge9" class="edge">
<title>7063828831238670495&#45;&gt;3436763942680217735</title>
<path fill="none" stroke="black" d="M333.53,-589.88C323.48,-600.19 310.55,-613.46 299.34,-624.97"/>
<polygon fill="black" stroke="black" points="296.75,-622.62 292.27,-632.22 301.76,-627.5 296.75,-622.62"/>
</g>
<!-- 3913109753717242485 -->
<g id="node13" class="node">
<title>3913109753717242485</title>
<ellipse fill="none" stroke="black" cx="488.4" cy="-466.88" rx="26" ry="26"/>
<text text-anchor="middle" x="488.4" y="-463.18" font-family="Helvetica,sans-Serif" font-size="14.00">add</text>
</g>
<!-- 7487036043649746936 -->
<g id="node14" class="node">
<title>7487036043649746936</title>
<polygon fill="none" stroke="black" points="515.4,-589.57 461.4,-589.57 461.4,-553.57 515.4,-553.57 515.4,-589.57"/>
<text text-anchor="middle" x="488.4" y="-567.87" font-family="Helvetica,sans-Serif" font-size="14.00">(1, 1)</text>
</g>
<!-- 3913109753717242485&#45;&gt;7487036043649746936 -->
<g id="edge10" class="edge">
<title>3913109753717242485&#45;&gt;7487036043649746936</title>
<path fill="none" stroke="black" d="M488.4,-493C488.4,-508.25 488.4,-527.71 488.4,-543.32"/>
<polygon fill="black" stroke="black" points="484.9,-543.42 488.4,-553.42 491.9,-543.42 484.9,-543.42"/>
</g>
<!-- &#45;4875274486368882696 -->
<g id="node15" class="node">
<title>&#45;4875274486368882696</title>
<polygon fill="none" stroke="black" points="555.4,-380.18 501.4,-380.18 501.4,-344.18 555.4,-344.18 555.4,-380.18"/>
<text text-anchor="middle" x="528.4" y="-358.48" font-family="Helvetica,sans-Serif" font-size="14.00">(1, 1)</text>
</g>
<!-- &#45;4875274486368882696&#45;&gt;3913109753717242485 -->
<g id="edge11" class="edge">
<title>&#45;4875274486368882696&#45;&gt;3913109753717242485</title>
<path fill="none" stroke="black" d="M521.61,-380.6C516.09,-394.76 508.15,-415.15 501.42,-432.44"/>
<polygon fill="black" stroke="black" points="497.99,-431.61 497.62,-442.2 504.51,-434.15 497.99,-431.61"/>
</g>
<!-- &#45;1612875315930460670 -->
<g id="node16" class="node">
<title>&#45;1612875315930460670</title>
<polygon fill="none" stroke="black" points="527.4,-170.79 473.4,-170.79 473.4,-134.79 527.4,-134.79 527.4,-170.79"/>
<text text-anchor="middle" x="500.4" y="-149.09" font-family="Helvetica,sans-Serif" font-size="14.00">(1, 1)</text>
</g>
<!-- &#45;1612875315930460670&#45;&gt;3913109753717242485 -->
<g id="edge12" class="edge">
<title>&#45;1612875315930460670&#45;&gt;3913109753717242485</title>
<path fill="none" stroke="black" d="M492.09,-171C487.65,-181.16 482.65,-194.41 480.4,-206.79 465.96,-285.94 475.59,-380.9 482.71,-430.99"/>
<polygon fill="black" stroke="black" points="479.26,-431.59 484.18,-440.97 486.19,-430.57 479.26,-431.59"/>
</g>
<!-- 6836635313828305108 -->
<g id="node24" class="node">
<title>6836635313828305108</title>
<ellipse fill="none" stroke="black" cx="540.4" cy="-257.49" rx="50.89" ry="50.89"/>
<text text-anchor="middle" x="540.4" y="-253.79" font-family="Helvetica,sans-Serif" font-size="14.00">transpose</text>
</g>
<!-- &#45;1612875315930460670&#45;&gt;6836635313828305108 -->
<g id="edge24" class="edge">
<title>&#45;1612875315930460670&#45;&gt;6836635313828305108</title>
<path fill="none" stroke="black" d="M507.18,-171.21C510.39,-179.44 514.41,-189.78 518.55,-200.39"/>
<polygon fill="black" stroke="black" points="515.3,-201.7 522.19,-209.74 521.82,-199.15 515.3,-201.7"/>
</g>
<!-- &#45;7413694626076518838 -->
<g id="node17" class="node">
<title>&#45;7413694626076518838</title>
<ellipse fill="none" stroke="black" cx="49.4" cy="-49.4" rx="49.29" ry="49.29"/>
<text text-anchor="middle" x="49.4" y="-45.7" font-family="Helvetica,sans-Serif" font-size="14.00">ones_like</text>
</g>
<!-- &#45;7413694626076518838&#45;&gt;&#45;13318638025341313 -->
<g id="edge13" class="edge">
<title>&#45;7413694626076518838&#45;&gt;&#45;13318638025341313</title>
<path fill="none" stroke="black" d="M49.4,-99.01C49.4,-107.82 49.4,-116.71 49.4,-124.62"/>
<polygon fill="black" stroke="black" points="45.9,-124.69 49.4,-134.69 52.9,-124.69 45.9,-124.69"/>
</g>
<!-- &#45;3174375453637626230 -->
<g id="node18" class="node">
<title>&#45;3174375453637626230</title>
<ellipse fill="none" stroke="black" cx="384.4" cy="-257.49" rx="49.29" ry="49.29"/>
<text text-anchor="middle" x="384.4" y="-253.79" font-family="Helvetica,sans-Serif" font-size="14.00">ones_like</text>
</g>
<!-- &#45;3174375453637626230&#45;&gt;&#45;4906392666998037679 -->
<g id="edge14" class="edge">
<title>&#45;3174375453637626230&#45;&gt;&#45;4906392666998037679</title>
<path fill="none" stroke="black" d="M373.77,-305.93C371.6,-315.64 369.38,-325.54 367.43,-334.23"/>
<polygon fill="black" stroke="black" points="363.98,-333.61 365.21,-344.13 370.82,-335.14 363.98,-333.61"/>
</g>
<!-- 2581928129491905945 -->
<g id="node19" class="node">
<title>2581928129491905945</title>
<ellipse fill="none" stroke="black" cx="226.4" cy="-49.4" rx="49.29" ry="49.29"/>
<text text-anchor="middle" x="226.4" y="-45.7" font-family="Helvetica,sans-Serif" font-size="14.00">ones_like</text>
</g>
<!-- 2581928129491905945&#45;&gt;&#45;8120516072032459095 -->
<g id="edge15" class="edge">
<title>2581928129491905945&#45;&gt;&#45;8120516072032459095</title>
<path fill="none" stroke="black" d="M226.4,-99.01C226.4,-107.82 226.4,-116.71 226.4,-124.62"/>
<polygon fill="black" stroke="black" points="222.9,-124.69 226.4,-134.69 229.9,-124.69 222.9,-124.69"/>
</g>
<!-- &#45;8780093733645953096 -->
<g id="node20" class="node">
<title>&#45;8780093733645953096</title>
<ellipse fill="none" stroke="black" cx="500.4" cy="-49.4" rx="49.29" ry="49.29"/>
<text text-anchor="middle" x="500.4" y="-45.7" font-family="Helvetica,sans-Serif" font-size="14.00">ones_like</text>
</g>
<!-- &#45;8780093733645953096&#45;&gt;&#45;1612875315930460670 -->
<g id="edge16" class="edge">
<title>&#45;8780093733645953096&#45;&gt;&#45;1612875315930460670</title>
<path fill="none" stroke="black" d="M500.4,-99.01C500.4,-107.82 500.4,-116.71 500.4,-124.62"/>
<polygon fill="black" stroke="black" points="496.9,-124.69 500.4,-134.69 503.9,-124.69 496.9,-124.69"/>
</g>
<!-- &#45;4527801337030193357&#45;&gt;5102529294994548060 -->
<g id="edge17" class="edge">
<title>&#45;4527801337030193357&#45;&gt;5102529294994548060</title>
<path fill="none" stroke="black" d="M102.61,-308.03C101.57,-316.92 100.52,-325.87 99.59,-333.84"/>
<polygon fill="black" stroke="black" points="96.09,-333.64 98.41,-343.98 103.04,-334.46 96.09,-333.64"/>
</g>
<!-- &#45;5331928242178766399&#45;&gt;&#45;6836574022613005131 -->
<g id="edge19" class="edge">
<title>&#45;5331928242178766399&#45;&gt;&#45;6836574022613005131</title>
<path fill="none" stroke="black" d="M266.4,-308.33C266.4,-317.18 266.4,-326.1 266.4,-334.02"/>
<polygon fill="black" stroke="black" points="262.9,-334.1 266.4,-344.1 269.9,-334.1 262.9,-334.1"/>
</g>
<!-- &#45;3759952566097816641&#45;&gt;7063828831238670495 -->
<g id="edge21" class="edge">
<title>&#45;3759952566097816641&#45;&gt;7063828831238670495</title>
<path fill="none" stroke="black" d="M356.09,-517.42C355.14,-526.31 354.18,-535.27 353.32,-543.23"/>
<polygon fill="black" stroke="black" points="349.82,-543.06 352.24,-553.37 356.78,-543.8 349.82,-543.06"/>
</g>
<!-- 6836635313828305108&#45;&gt;&#45;4875274486368882696 -->
<g id="edge23" class="edge">
<title>6836635313828305108&#45;&gt;&#45;4875274486368882696</title>
<path fill="none" stroke="black" d="M534.61,-308.03C533.57,-316.92 532.52,-325.87 531.59,-333.84"/>
<polygon fill="black" stroke="black" points="528.09,-333.64 530.41,-343.98 535.04,-334.46 528.09,-333.64"/>
</g>
</g>
</svg>
