<?xml version="1.0" encoding="UTF-8" standalone="no"?>
<!DOCTYPE svg PUBLIC "-//W3C//DTD SVG 1.1//EN"
 "http://www.w3.org/Graphics/SVG/1.1/DTD/svg11.dtd">
<!-- Generated by graphviz version 2.48.0 (20210717.1556)
 -->
<!-- Pages: 1 -->
<svg width="970pt" height="2221pt"
 viewBox="0.00 0.00 970.48 2220.60" xmlns="http://www.w3.org/2000/svg" xmlns:xlink="http://www.w3.org/1999/xlink">
<g id="graph0" class="graph" transform="scale(1 1) rotate(0) translate(4 2216.6)">
<polygon fill="white" stroke="transparent" points="-4,4 -4,-2216.6 966.48,-2216.6 966.48,4 -4,4"/>
<!-- 8975093438328741264 -->
<g id="node1" class="node">
<title>8975093438328741264</title>
<ellipse fill="none" stroke="black" cx="848.74" cy="-910.36" rx="40.09" ry="40.09"/>
<text text-anchor="middle" x="848.74" y="-906.66" font-family="Helvetica,sans-Serif" font-size="14.00">getitem</text>
</g>
<!-- 4154053050679792461 -->
<g id="node2" class="node">
<title>4154053050679792461</title>
<polygon fill="none" stroke="black" points="875.74,-1022.65 821.74,-1022.65 821.74,-986.65 875.74,-986.65 875.74,-1022.65"/>
<text text-anchor="middle" x="848.74" y="-1000.95" font-family="Helvetica,sans-Serif" font-size="14.00">0</text>
</g>
<!-- 8975093438328741264&#45;&gt;4154053050679792461 -->
<g id="edge1" class="edge">
<title>8975093438328741264&#45;&gt;4154053050679792461</title>
<path fill="none" stroke="black" d="M848.74,-950.77C848.74,-959.39 848.74,-968.33 848.74,-976.36"/>
<polygon fill="black" stroke="black" points="845.24,-976.62 848.74,-986.62 852.24,-976.62 845.24,-976.62"/>
</g>
<!-- 1009892751118477009 -->
<g id="node41" class="node">
<title>1009892751118477009</title>
<ellipse fill="none" stroke="black" cx="848.74" cy="-1098.95" rx="40.09" ry="40.09"/>
<text text-anchor="middle" x="848.74" y="-1095.25" font-family="Helvetica,sans-Serif" font-size="14.00">getitem</text>
</g>
<!-- 4154053050679792461&#45;&gt;1009892751118477009 -->
<g id="edge42" class="edge">
<title>4154053050679792461&#45;&gt;1009892751118477009</title>
<path fill="none" stroke="black" d="M848.74,-1023.01C848.74,-1030.3 848.74,-1039.18 848.74,-1048.24"/>
<polygon fill="black" stroke="black" points="845.24,-1048.47 848.74,-1058.47 852.24,-1048.47 845.24,-1048.47"/>
</g>
<!-- &#45;1886318307358242303 -->
<g id="node3" class="node">
<title>&#45;1886318307358242303</title>
<polygon fill="none" stroke="black" points="880.74,-501.07 826.74,-501.07 826.74,-465.07 880.74,-465.07 880.74,-501.07"/>
<text text-anchor="middle" x="853.74" y="-479.37" font-family="Helvetica,sans-Serif" font-size="14.00">0</text>
</g>
<!-- &#45;1886318307358242303&#45;&gt;8975093438328741264 -->
<g id="edge2" class="edge">
<title>&#45;1886318307358242303&#45;&gt;8975093438328741264</title>
<path fill="none" stroke="black" d="M848.29,-501.11C845.14,-511.43 841.31,-524.91 838.74,-537.07 826.32,-595.74 819.74,-610.69 819.74,-670.66 819.74,-670.66 819.74,-670.66 819.74,-744.86 819.74,-784.55 828.03,-828.81 835.74,-861.41"/>
<polygon fill="black" stroke="black" points="832.34,-862.25 838.11,-871.14 839.14,-860.59 832.34,-862.25"/>
</g>
<!-- 2368622691986073372 -->
<g id="node29" class="node">
<title>2368622691986073372</title>
<ellipse fill="none" stroke="black" cx="887.74" cy="-577.37" rx="40.09" ry="40.09"/>
<text text-anchor="middle" x="887.74" y="-573.67" font-family="Helvetica,sans-Serif" font-size="14.00">getitem</text>
</g>
<!-- &#45;1886318307358242303&#45;&gt;2368622691986073372 -->
<g id="edge26" class="edge">
<title>&#45;1886318307358242303&#45;&gt;2368622691986073372</title>
<path fill="none" stroke="black" d="M860.14,-501.43C863.11,-509.5 866.8,-519.53 870.51,-529.6"/>
<polygon fill="black" stroke="black" points="867.31,-531.03 874.05,-539.21 873.88,-528.61 867.31,-531.03"/>
</g>
<!-- &#45;7049029746738975710 -->
<g id="node4" class="node">
<title>&#45;7049029746738975710</title>
<polygon fill="none" stroke="black" points="904.74,-834.06 850.74,-834.06 850.74,-798.06 904.74,-798.06 904.74,-834.06"/>
<text text-anchor="middle" x="877.74" y="-812.36" font-family="Helvetica,sans-Serif" font-size="14.00">0</text>
</g>
<!-- &#45;7049029746738975710&#45;&gt;8975093438328741264 -->
<g id="edge3" class="edge">
<title>&#45;7049029746738975710&#45;&gt;8975093438328741264</title>
<path fill="none" stroke="black" d="M872.29,-834.42C869.8,-842.33 866.72,-852.12 863.62,-861.99"/>
<polygon fill="black" stroke="black" points="860.2,-861.22 860.54,-871.81 866.87,-863.32 860.2,-861.22"/>
</g>
<!-- &#45;4545202342721560692 -->
<g id="node5" class="node">
<title>&#45;4545202342721560692</title>
<ellipse fill="none" stroke="black" cx="113.74" cy="-910.36" rx="40.09" ry="40.09"/>
<text text-anchor="middle" x="113.74" y="-906.66" font-family="Helvetica,sans-Serif" font-size="14.00">getitem</text>
</g>
<!-- &#45;7785050266927760730 -->
<g id="node6" class="node">
<title>&#45;7785050266927760730</title>
<polygon fill="none" stroke="black" points="140.74,-1022.65 86.74,-1022.65 86.74,-986.65 140.74,-986.65 140.74,-1022.65"/>
<text text-anchor="middle" x="113.74" y="-1000.95" font-family="Helvetica,sans-Serif" font-size="14.00">1</text>
</g>
<!-- &#45;4545202342721560692&#45;&gt;&#45;7785050266927760730 -->
<g id="edge4" class="edge">
<title>&#45;4545202342721560692&#45;&gt;&#45;7785050266927760730</title>
<path fill="none" stroke="black" d="M113.74,-950.77C113.74,-959.39 113.74,-968.33 113.74,-976.36"/>
<polygon fill="black" stroke="black" points="110.24,-976.62 113.74,-986.62 117.24,-976.62 110.24,-976.62"/>
</g>
<!-- &#45;26946661153843634 -->
<g id="node43" class="node">
<title>&#45;26946661153843634</title>
<ellipse fill="none" stroke="black" cx="113.74" cy="-1098.95" rx="40.09" ry="40.09"/>
<text text-anchor="middle" x="113.74" y="-1095.25" font-family="Helvetica,sans-Serif" font-size="14.00">getitem</text>
</g>
<!-- &#45;7785050266927760730&#45;&gt;&#45;26946661153843634 -->
<g id="edge44" class="edge">
<title>&#45;7785050266927760730&#45;&gt;&#45;26946661153843634</title>
<path fill="none" stroke="black" d="M113.74,-1023.01C113.74,-1030.3 113.74,-1039.18 113.74,-1048.24"/>
<polygon fill="black" stroke="black" points="110.24,-1048.47 113.74,-1058.47 117.24,-1048.47 110.24,-1048.47"/>
</g>
<!-- 4621322448743756122 -->
<g id="node7" class="node">
<title>4621322448743756122</title>
<polygon fill="none" stroke="black" points="188.74,-501.07 134.74,-501.07 134.74,-465.07 188.74,-465.07 188.74,-501.07"/>
<text text-anchor="middle" x="161.74" y="-479.37" font-family="Helvetica,sans-Serif" font-size="14.00">1</text>
</g>
<!-- 4621322448743756122&#45;&gt;&#45;4545202342721560692 -->
<g id="edge5" class="edge">
<title>4621322448743756122&#45;&gt;&#45;4545202342721560692</title>
<path fill="none" stroke="black" d="M147.23,-501.08C139.59,-510.96 130.79,-524 125.74,-537.07 104.11,-593.01 106.74,-610.69 106.74,-670.66 106.74,-670.66 106.74,-670.66 106.74,-744.86 106.74,-783.42 108.68,-827.02 110.52,-859.64"/>
<polygon fill="black" stroke="black" points="107.04,-860.04 111.11,-869.83 114.03,-859.64 107.04,-860.04"/>
</g>
<!-- 2407315613922909122 -->
<g id="node31" class="node">
<title>2407315613922909122</title>
<ellipse fill="none" stroke="black" cx="174.74" cy="-577.37" rx="40.09" ry="40.09"/>
<text text-anchor="middle" x="174.74" y="-573.67" font-family="Helvetica,sans-Serif" font-size="14.00">getitem</text>
</g>
<!-- 4621322448743756122&#45;&gt;2407315613922909122 -->
<g id="edge28" class="edge">
<title>4621322448743756122&#45;&gt;2407315613922909122</title>
<path fill="none" stroke="black" d="M164.19,-501.43C165.23,-508.87 166.51,-517.97 167.82,-527.24"/>
<polygon fill="black" stroke="black" points="164.37,-527.86 169.23,-537.28 171.31,-526.89 164.37,-527.86"/>
</g>
<!-- &#45;541388990636977285 -->
<g id="node8" class="node">
<title>&#45;541388990636977285</title>
<polygon fill="none" stroke="black" points="189.74,-834.06 135.74,-834.06 135.74,-798.06 189.74,-798.06 189.74,-834.06"/>
<text text-anchor="middle" x="162.74" y="-812.36" font-family="Helvetica,sans-Serif" font-size="14.00">1</text>
</g>
<!-- &#45;541388990636977285&#45;&gt;&#45;4545202342721560692 -->
<g id="edge6" class="edge">
<title>&#45;541388990636977285&#45;&gt;&#45;4545202342721560692</title>
<path fill="none" stroke="black" d="M153.52,-834.42C148.85,-843.23 142.93,-854.38 137.1,-865.36"/>
<polygon fill="black" stroke="black" points="133.85,-864.02 132.25,-874.49 140.03,-867.3 133.85,-864.02"/>
</g>
<!-- &#45;4704240553267036212 -->
<g id="node9" class="node">
<title>&#45;4704240553267036212</title>
<ellipse fill="none" stroke="black" cx="358.74" cy="-910.36" rx="40.09" ry="40.09"/>
<text text-anchor="middle" x="358.74" y="-906.66" font-family="Helvetica,sans-Serif" font-size="14.00">getitem</text>
</g>
<!-- 5768619777809094520 -->
<g id="node10" class="node">
<title>5768619777809094520</title>
<polygon fill="none" stroke="black" points="385.74,-1022.65 331.74,-1022.65 331.74,-986.65 385.74,-986.65 385.74,-1022.65"/>
<text text-anchor="middle" x="358.74" y="-1000.95" font-family="Helvetica,sans-Serif" font-size="14.00">2</text>
</g>
<!-- &#45;4704240553267036212&#45;&gt;5768619777809094520 -->
<g id="edge7" class="edge">
<title>&#45;4704240553267036212&#45;&gt;5768619777809094520</title>
<path fill="none" stroke="black" d="M358.74,-950.77C358.74,-959.39 358.74,-968.33 358.74,-976.36"/>
<polygon fill="black" stroke="black" points="355.24,-976.62 358.74,-986.62 362.24,-976.62 355.24,-976.62"/>
</g>
<!-- &#45;831073566302416676 -->
<g id="node45" class="node">
<title>&#45;831073566302416676</title>
<ellipse fill="none" stroke="black" cx="358.74" cy="-1098.95" rx="40.09" ry="40.09"/>
<text text-anchor="middle" x="358.74" y="-1095.25" font-family="Helvetica,sans-Serif" font-size="14.00">getitem</text>
</g>
<!-- 5768619777809094520&#45;&gt;&#45;831073566302416676 -->
<g id="edge46" class="edge">
<title>5768619777809094520&#45;&gt;&#45;831073566302416676</title>
<path fill="none" stroke="black" d="M358.74,-1023.01C358.74,-1030.3 358.74,-1039.18 358.74,-1048.24"/>
<polygon fill="black" stroke="black" points="355.24,-1048.47 358.74,-1058.47 362.24,-1048.47 355.24,-1048.47"/>
</g>
<!-- &#45;271751580228940244 -->
<g id="node11" class="node">
<title>&#45;271751580228940244</title>
<polygon fill="none" stroke="black" points="402.74,-501.07 348.74,-501.07 348.74,-465.07 402.74,-465.07 402.74,-501.07"/>
<text text-anchor="middle" x="375.74" y="-479.37" font-family="Helvetica,sans-Serif" font-size="14.00">2</text>
</g>
<!-- &#45;271751580228940244&#45;&gt;&#45;4704240553267036212 -->
<g id="edge8" class="edge">
<title>&#45;271751580228940244&#45;&gt;&#45;4704240553267036212</title>
<path fill="none" stroke="black" d="M372.2,-501.22C365.74,-533.99 352.74,-607.83 352.74,-670.66 352.74,-670.66 352.74,-670.66 352.74,-744.86 352.74,-783.41 354.41,-827.01 355.98,-859.63"/>
<polygon fill="black" stroke="black" points="352.5,-860.01 356.49,-869.82 359.49,-859.66 352.5,-860.01"/>
</g>
<!-- 725387507047490957 -->
<g id="node33" class="node">
<title>725387507047490957</title>
<ellipse fill="none" stroke="black" cx="420.74" cy="-577.37" rx="40.09" ry="40.09"/>
<text text-anchor="middle" x="420.74" y="-573.67" font-family="Helvetica,sans-Serif" font-size="14.00">getitem</text>
</g>
<!-- &#45;271751580228940244&#45;&gt;725387507047490957 -->
<g id="edge30" class="edge">
<title>&#45;271751580228940244&#45;&gt;725387507047490957</title>
<path fill="none" stroke="black" d="M384.2,-501.43C388.38,-509.99 393.63,-520.76 398.83,-531.43"/>
<polygon fill="black" stroke="black" points="395.84,-533.28 403.37,-540.74 402.13,-530.21 395.84,-533.28"/>
</g>
<!-- &#45;5434463019609673651 -->
<g id="node12" class="node">
<title>&#45;5434463019609673651</title>
<polygon fill="none" stroke="black" points="436.74,-834.06 382.74,-834.06 382.74,-798.06 436.74,-798.06 436.74,-834.06"/>
<text text-anchor="middle" x="409.74" y="-812.36" font-family="Helvetica,sans-Serif" font-size="14.00">2</text>
</g>
<!-- &#45;5434463019609673651&#45;&gt;&#45;4704240553267036212 -->
<g id="edge9" class="edge">
<title>&#45;5434463019609673651&#45;&gt;&#45;4704240553267036212</title>
<path fill="none" stroke="black" d="M400.15,-834.42C395.23,-843.32 389,-854.6 382.87,-865.69"/>
<polygon fill="black" stroke="black" points="379.78,-864.04 378.01,-874.49 385.91,-867.43 379.78,-864.04"/>
</g>
<!-- &#45;6386168660142454377 -->
<g id="node13" class="node">
<title>&#45;6386168660142454377</title>
<ellipse fill="none" stroke="black" cx="603.74" cy="-910.36" rx="40.09" ry="40.09"/>
<text text-anchor="middle" x="603.74" y="-906.66" font-family="Helvetica,sans-Serif" font-size="14.00">getitem</text>
</g>
<!-- 7877903150926724817 -->
<g id="node14" class="node">
<title>7877903150926724817</title>
<polygon fill="none" stroke="black" points="630.74,-1022.65 576.74,-1022.65 576.74,-986.65 630.74,-986.65 630.74,-1022.65"/>
<text text-anchor="middle" x="603.74" y="-1000.95" font-family="Helvetica,sans-Serif" font-size="14.00">3</text>
</g>
<!-- &#45;6386168660142454377&#45;&gt;7877903150926724817 -->
<g id="edge10" class="edge">
<title>&#45;6386168660142454377&#45;&gt;7877903150926724817</title>
<path fill="none" stroke="black" d="M603.74,-950.77C603.74,-959.39 603.74,-968.33 603.74,-976.36"/>
<polygon fill="black" stroke="black" points="600.24,-976.62 603.74,-986.62 607.24,-976.62 600.24,-976.62"/>
</g>
<!-- 3408245606136475932 -->
<g id="node47" class="node">
<title>3408245606136475932</title>
<ellipse fill="none" stroke="black" cx="603.74" cy="-1098.95" rx="40.09" ry="40.09"/>
<text text-anchor="middle" x="603.74" y="-1095.25" font-family="Helvetica,sans-Serif" font-size="14.00">getitem</text>
</g>
<!-- 7877903150926724817&#45;&gt;3408245606136475932 -->
<g id="edge48" class="edge">
<title>7877903150926724817&#45;&gt;3408245606136475932</title>
<path fill="none" stroke="black" d="M603.74,-1023.01C603.74,-1030.3 603.74,-1039.18 603.74,-1048.24"/>
<polygon fill="black" stroke="black" points="600.24,-1048.47 603.74,-1058.47 607.24,-1048.47 600.24,-1048.47"/>
</g>
<!-- 1837531792888690053 -->
<g id="node15" class="node">
<title>1837531792888690053</title>
<polygon fill="none" stroke="black" points="601.74,-501.07 547.74,-501.07 547.74,-465.07 601.74,-465.07 601.74,-501.07"/>
<text text-anchor="middle" x="574.74" y="-479.37" font-family="Helvetica,sans-Serif" font-size="14.00">3</text>
</g>
<!-- 1837531792888690053&#45;&gt;&#45;6386168660142454377 -->
<g id="edge11" class="edge">
<title>1837531792888690053&#45;&gt;&#45;6386168660142454377</title>
<path fill="none" stroke="black" d="M573.82,-501.3C572.13,-534.21 568.74,-608.27 568.74,-670.66 568.74,-670.66 568.74,-670.66 568.74,-744.86 568.74,-785.08 578.87,-829.65 588.24,-862.23"/>
<polygon fill="black" stroke="black" points="584.91,-863.35 591.1,-871.94 591.63,-861.36 584.91,-863.35"/>
</g>
<!-- 566349296502015437 -->
<g id="node35" class="node">
<title>566349296502015437</title>
<ellipse fill="none" stroke="black" cx="636.74" cy="-577.37" rx="40.09" ry="40.09"/>
<text text-anchor="middle" x="636.74" y="-573.67" font-family="Helvetica,sans-Serif" font-size="14.00">getitem</text>
</g>
<!-- 1837531792888690053&#45;&gt;566349296502015437 -->
<g id="edge32" class="edge">
<title>1837531792888690053&#45;&gt;566349296502015437</title>
<path fill="none" stroke="black" d="M586.4,-501.43C592.78,-510.93 600.98,-523.13 608.9,-534.92"/>
<polygon fill="black" stroke="black" points="606.11,-537.04 614.59,-543.39 611.92,-533.14 606.11,-537.04"/>
</g>
<!-- 1073177736492324774 -->
<g id="node16" class="node">
<title>1073177736492324774</title>
<polygon fill="none" stroke="black" points="652.74,-834.06 598.74,-834.06 598.74,-798.06 652.74,-798.06 652.74,-834.06"/>
<text text-anchor="middle" x="625.74" y="-812.36" font-family="Helvetica,sans-Serif" font-size="14.00">3</text>
</g>
<!-- 1073177736492324774&#45;&gt;&#45;6386168660142454377 -->
<g id="edge12" class="edge">
<title>1073177736492324774&#45;&gt;&#45;6386168660142454377</title>
<path fill="none" stroke="black" d="M621.6,-834.42C619.77,-842.1 617.52,-851.54 615.24,-861.1"/>
<polygon fill="black" stroke="black" points="611.79,-860.5 612.87,-871.04 618.6,-862.12 611.79,-860.5"/>
</g>
<!-- 8198538481943568633 -->
<g id="node17" class="node">
<title>8198538481943568633</title>
<ellipse fill="none" stroke="black" cx="853.74" cy="-77.34" rx="77.19" ry="77.19"/>
<text text-anchor="middle" x="853.74" y="-73.64" font-family="Helvetica,sans-Serif" font-size="14.00">make&#45;timeseries</text>
</g>
<!-- 4961396763331876892 -->
<g id="node18" class="node">
<title>4961396763331876892</title>
<polygon fill="none" stroke="black" points="880.74,-226.69 826.74,-226.69 826.74,-190.69 880.74,-190.69 880.74,-226.69"/>
<text text-anchor="middle" x="853.74" y="-204.99" font-family="Helvetica,sans-Serif" font-size="14.00">0</text>
</g>
<!-- 8198538481943568633&#45;&gt;4961396763331876892 -->
<g id="edge13" class="edge">
<title>8198538481943568633&#45;&gt;4961396763331876892</title>
<path fill="none" stroke="black" d="M853.74,-154.7C853.74,-163.77 853.74,-172.53 853.74,-180.22"/>
<polygon fill="black" stroke="black" points="850.24,-180.3 853.74,-190.3 857.24,-180.3 850.24,-180.3"/>
</g>
<!-- &#45;4072055406750210966 -->
<g id="node25" class="node">
<title>&#45;4072055406750210966</title>
<ellipse fill="none" stroke="black" cx="853.74" cy="-345.88" rx="83.39" ry="83.39"/>
<text text-anchor="middle" x="853.74" y="-342.18" font-family="Helvetica,sans-Serif" font-size="14.00">to_pyarrow_string</text>
</g>
<!-- 4961396763331876892&#45;&gt;&#45;4072055406750210966 -->
<g id="edge18" class="edge">
<title>4961396763331876892&#45;&gt;&#45;4072055406750210966</title>
<path fill="none" stroke="black" d="M853.74,-226.81C853.74,-233.87 853.74,-242.65 853.74,-252.21"/>
<polygon fill="black" stroke="black" points="850.24,-252.41 853.74,-262.41 857.24,-252.41 850.24,-252.41"/>
</g>
<!-- 2118252992083782340 -->
<g id="node19" class="node">
<title>2118252992083782340</title>
<ellipse fill="none" stroke="black" cx="161.74" cy="-77.34" rx="77.19" ry="77.19"/>
<text text-anchor="middle" x="161.74" y="-73.64" font-family="Helvetica,sans-Serif" font-size="14.00">make&#45;timeseries</text>
</g>
<!-- 7070680136449507189 -->
<g id="node20" class="node">
<title>7070680136449507189</title>
<polygon fill="none" stroke="black" points="188.74,-226.69 134.74,-226.69 134.74,-190.69 188.74,-190.69 188.74,-226.69"/>
<text text-anchor="middle" x="161.74" y="-204.99" font-family="Helvetica,sans-Serif" font-size="14.00">1</text>
</g>
<!-- 2118252992083782340&#45;&gt;7070680136449507189 -->
<g id="edge14" class="edge">
<title>2118252992083782340&#45;&gt;7070680136449507189</title>
<path fill="none" stroke="black" d="M161.74,-154.7C161.74,-163.77 161.74,-172.53 161.74,-180.22"/>
<polygon fill="black" stroke="black" points="158.24,-180.3 161.74,-190.3 165.24,-180.3 158.24,-180.3"/>
</g>
<!-- &#45;4876182311898784008 -->
<g id="node26" class="node">
<title>&#45;4876182311898784008</title>
<ellipse fill="none" stroke="black" cx="161.74" cy="-345.88" rx="83.39" ry="83.39"/>
<text text-anchor="middle" x="161.74" y="-342.18" font-family="Helvetica,sans-Serif" font-size="14.00">to_pyarrow_string</text>
</g>
<!-- 7070680136449507189&#45;&gt;&#45;4876182311898784008 -->
<g id="edge20" class="edge">
<title>7070680136449507189&#45;&gt;&#45;4876182311898784008</title>
<path fill="none" stroke="black" d="M161.74,-226.81C161.74,-233.87 161.74,-242.65 161.74,-252.21"/>
<polygon fill="black" stroke="black" points="158.24,-252.41 161.74,-262.41 165.24,-252.41 158.24,-252.41"/>
</g>
<!-- &#45;4200322793466611051 -->
<g id="node21" class="node">
<title>&#45;4200322793466611051</title>
<ellipse fill="none" stroke="black" cx="375.74" cy="-77.34" rx="77.19" ry="77.19"/>
<text text-anchor="middle" x="375.74" y="-73.64" font-family="Helvetica,sans-Serif" font-size="14.00">make&#45;timeseries</text>
</g>
<!-- 2177606107476810823 -->
<g id="node22" class="node">
<title>2177606107476810823</title>
<polygon fill="none" stroke="black" points="402.74,-226.69 348.74,-226.69 348.74,-190.69 402.74,-190.69 402.74,-226.69"/>
<text text-anchor="middle" x="375.74" y="-204.99" font-family="Helvetica,sans-Serif" font-size="14.00">2</text>
</g>
<!-- &#45;4200322793466611051&#45;&gt;2177606107476810823 -->
<g id="edge15" class="edge">
<title>&#45;4200322793466611051&#45;&gt;2177606107476810823</title>
<path fill="none" stroke="black" d="M375.74,-154.7C375.74,-163.77 375.74,-172.53 375.74,-180.22"/>
<polygon fill="black" stroke="black" points="372.24,-180.3 375.74,-190.3 379.24,-180.3 372.24,-180.3"/>
</g>
<!-- 7251985976260374217 -->
<g id="node27" class="node">
<title>7251985976260374217</title>
<ellipse fill="none" stroke="black" cx="375.74" cy="-345.88" rx="83.39" ry="83.39"/>
<text text-anchor="middle" x="375.74" y="-342.18" font-family="Helvetica,sans-Serif" font-size="14.00">to_pyarrow_string</text>
</g>
<!-- 2177606107476810823&#45;&gt;7251985976260374217 -->
<g id="edge22" class="edge">
<title>2177606107476810823&#45;&gt;7251985976260374217</title>
<path fill="none" stroke="black" d="M375.74,-226.81C375.74,-233.87 375.74,-242.65 375.74,-252.21"/>
<polygon fill="black" stroke="black" points="372.24,-252.41 375.74,-262.41 379.24,-252.41 372.24,-252.41"/>
</g>
<!-- &#45;5004449698615184093 -->
<g id="node23" class="node">
<title>&#45;5004449698615184093</title>
<ellipse fill="none" stroke="black" cx="574.74" cy="-77.34" rx="77.19" ry="77.19"/>
<text text-anchor="middle" x="574.74" y="-73.64" font-family="Helvetica,sans-Serif" font-size="14.00">make&#45;timeseries</text>
</g>
<!-- 8685246863578809248 -->
<g id="node24" class="node">
<title>8685246863578809248</title>
<polygon fill="none" stroke="black" points="601.74,-226.69 547.74,-226.69 547.74,-190.69 601.74,-190.69 601.74,-226.69"/>
<text text-anchor="middle" x="574.74" y="-204.99" font-family="Helvetica,sans-Serif" font-size="14.00">3</text>
</g>
<!-- &#45;5004449698615184093&#45;&gt;8685246863578809248 -->
<g id="edge16" class="edge">
<title>&#45;5004449698615184093&#45;&gt;8685246863578809248</title>
<path fill="none" stroke="black" d="M574.74,-154.7C574.74,-163.77 574.74,-172.53 574.74,-180.22"/>
<polygon fill="black" stroke="black" points="571.24,-180.3 574.74,-190.3 578.24,-180.3 571.24,-180.3"/>
</g>
<!-- 1171700486400587924 -->
<g id="node28" class="node">
<title>1171700486400587924</title>
<ellipse fill="none" stroke="black" cx="574.74" cy="-345.88" rx="83.39" ry="83.39"/>
<text text-anchor="middle" x="574.74" y="-342.18" font-family="Helvetica,sans-Serif" font-size="14.00">to_pyarrow_string</text>
</g>
<!-- 8685246863578809248&#45;&gt;1171700486400587924 -->
<g id="edge24" class="edge">
<title>8685246863578809248&#45;&gt;1171700486400587924</title>
<path fill="none" stroke="black" d="M574.74,-226.81C574.74,-233.87 574.74,-242.65 574.74,-252.21"/>
<polygon fill="black" stroke="black" points="571.24,-252.41 574.74,-262.41 578.24,-252.41 571.24,-252.41"/>
</g>
<!-- &#45;4072055406750210966&#45;&gt;&#45;1886318307358242303 -->
<g id="edge17" class="edge">
<title>&#45;4072055406750210966&#45;&gt;&#45;1886318307358242303</title>
<path fill="none" stroke="black" d="M853.74,-429.42C853.74,-438.53 853.74,-447.27 853.74,-454.91"/>
<polygon fill="black" stroke="black" points="850.24,-454.92 853.74,-464.92 857.24,-454.92 850.24,-454.92"/>
</g>
<!-- &#45;4876182311898784008&#45;&gt;4621322448743756122 -->
<g id="edge19" class="edge">
<title>&#45;4876182311898784008&#45;&gt;4621322448743756122</title>
<path fill="none" stroke="black" d="M161.74,-429.42C161.74,-438.53 161.74,-447.27 161.74,-454.91"/>
<polygon fill="black" stroke="black" points="158.24,-454.92 161.74,-464.92 165.24,-454.92 158.24,-454.92"/>
</g>
<!-- 7251985976260374217&#45;&gt;&#45;271751580228940244 -->
<g id="edge21" class="edge">
<title>7251985976260374217&#45;&gt;&#45;271751580228940244</title>
<path fill="none" stroke="black" d="M375.74,-429.42C375.74,-438.53 375.74,-447.27 375.74,-454.91"/>
<polygon fill="black" stroke="black" points="372.24,-454.92 375.74,-464.92 379.24,-454.92 372.24,-454.92"/>
</g>
<!-- 1171700486400587924&#45;&gt;1837531792888690053 -->
<g id="edge23" class="edge">
<title>1171700486400587924&#45;&gt;1837531792888690053</title>
<path fill="none" stroke="black" d="M574.74,-429.42C574.74,-438.53 574.74,-447.27 574.74,-454.91"/>
<polygon fill="black" stroke="black" points="571.24,-454.92 574.74,-464.92 578.24,-454.92 571.24,-454.92"/>
</g>
<!-- &#45;1721430607841532440 -->
<g id="node30" class="node">
<title>&#45;1721430607841532440</title>
<polygon fill="none" stroke="black" points="912.74,-689.66 858.74,-689.66 858.74,-653.66 912.74,-653.66 912.74,-689.66"/>
<text text-anchor="middle" x="885.74" y="-667.96" font-family="Helvetica,sans-Serif" font-size="14.00">0</text>
</g>
<!-- 2368622691986073372&#45;&gt;&#45;1721430607841532440 -->
<g id="edge25" class="edge">
<title>2368622691986073372&#45;&gt;&#45;1721430607841532440</title>
<path fill="none" stroke="black" d="M886.89,-617.78C886.7,-626.4 886.51,-635.35 886.33,-643.37"/>
<polygon fill="black" stroke="black" points="882.83,-643.55 886.11,-653.63 889.82,-643.71 882.83,-643.55"/>
</g>
<!-- &#45;7327413143243567357 -->
<g id="node37" class="node">
<title>&#45;7327413143243567357</title>
<ellipse fill="none" stroke="black" cx="879.74" cy="-743.86" rx="18.4" ry="18.4"/>
<text text-anchor="middle" x="879.74" y="-740.16" font-family="Helvetica,sans-Serif" font-size="14.00">gt</text>
</g>
<!-- &#45;1721430607841532440&#45;&gt;&#45;7327413143243567357 -->
<g id="edge34" class="edge">
<title>&#45;1721430607841532440&#45;&gt;&#45;7327413143243567357</title>
<path fill="none" stroke="black" d="M884.26,-690.02C883.6,-697.75 882.8,-707.05 882.06,-715.67"/>
<polygon fill="black" stroke="black" points="878.57,-715.45 881.21,-725.71 885.54,-716.04 878.57,-715.45"/>
</g>
<!-- 4786210148260465985 -->
<g id="node32" class="node">
<title>4786210148260465985</title>
<polygon fill="none" stroke="black" points="194.74,-689.66 140.74,-689.66 140.74,-653.66 194.74,-653.66 194.74,-689.66"/>
<text text-anchor="middle" x="167.74" y="-667.96" font-family="Helvetica,sans-Serif" font-size="14.00">1</text>
</g>
<!-- 2407315613922909122&#45;&gt;4786210148260465985 -->
<g id="edge27" class="edge">
<title>2407315613922909122&#45;&gt;4786210148260465985</title>
<path fill="none" stroke="black" d="M171.75,-617.78C171.09,-626.5 170.4,-635.55 169.79,-643.64"/>
<polygon fill="black" stroke="black" points="166.3,-643.39 169.03,-653.63 173.28,-643.92 166.3,-643.39"/>
</g>
<!-- &#45;7288720221306731607 -->
<g id="node38" class="node">
<title>&#45;7288720221306731607</title>
<ellipse fill="none" stroke="black" cx="164.74" cy="-743.86" rx="18.4" ry="18.4"/>
<text text-anchor="middle" x="164.74" y="-740.16" font-family="Helvetica,sans-Serif" font-size="14.00">gt</text>
</g>
<!-- 4786210148260465985&#45;&gt;&#45;7288720221306731607 -->
<g id="edge36" class="edge">
<title>4786210148260465985&#45;&gt;&#45;7288720221306731607</title>
<path fill="none" stroke="black" d="M167,-690.02C166.68,-697.55 166.29,-706.57 165.93,-715.01"/>
<polygon fill="black" stroke="black" points="162.42,-715.08 165.49,-725.22 169.42,-715.38 162.42,-715.08"/>
</g>
<!-- 6895493521378096282 -->
<g id="node34" class="node">
<title>6895493521378096282</title>
<polygon fill="none" stroke="black" points="441.74,-689.66 387.74,-689.66 387.74,-653.66 441.74,-653.66 441.74,-689.66"/>
<text text-anchor="middle" x="414.74" y="-667.96" font-family="Helvetica,sans-Serif" font-size="14.00">2</text>
</g>
<!-- 725387507047490957&#45;&gt;6895493521378096282 -->
<g id="edge29" class="edge">
<title>725387507047490957&#45;&gt;6895493521378096282</title>
<path fill="none" stroke="black" d="M418.18,-617.78C417.61,-626.5 417.02,-635.55 416.5,-643.64"/>
<polygon fill="black" stroke="black" points="413,-643.42 415.85,-653.63 419.99,-643.88 413,-643.42"/>
</g>
<!-- &#45;3049401048867838999 -->
<g id="node39" class="node">
<title>&#45;3049401048867838999</title>
<ellipse fill="none" stroke="black" cx="411.74" cy="-743.86" rx="18.4" ry="18.4"/>
<text text-anchor="middle" x="411.74" y="-740.16" font-family="Helvetica,sans-Serif" font-size="14.00">gt</text>
</g>
<!-- 6895493521378096282&#45;&gt;&#45;3049401048867838999 -->
<g id="edge38" class="edge">
<title>6895493521378096282&#45;&gt;&#45;3049401048867838999</title>
<path fill="none" stroke="black" d="M414,-690.02C413.68,-697.55 413.29,-706.57 412.93,-715.01"/>
<polygon fill="black" stroke="black" points="409.42,-715.08 412.49,-725.22 416.42,-715.38 409.42,-715.08"/>
</g>
<!-- 2002419492405399916 -->
<g id="node36" class="node">
<title>2002419492405399916</title>
<polygon fill="none" stroke="black" points="661.74,-689.66 607.74,-689.66 607.74,-653.66 661.74,-653.66 661.74,-689.66"/>
<text text-anchor="middle" x="634.74" y="-667.96" font-family="Helvetica,sans-Serif" font-size="14.00">3</text>
</g>
<!-- 566349296502015437&#45;&gt;2002419492405399916 -->
<g id="edge31" class="edge">
<title>566349296502015437&#45;&gt;2002419492405399916</title>
<path fill="none" stroke="black" d="M635.89,-617.78C635.7,-626.4 635.51,-635.35 635.33,-643.37"/>
<polygon fill="black" stroke="black" points="631.83,-643.55 635.11,-653.63 638.82,-643.71 631.83,-643.55"/>
</g>
<!-- 1877047243791410661 -->
<g id="node40" class="node">
<title>1877047243791410661</title>
<ellipse fill="none" stroke="black" cx="631.74" cy="-743.86" rx="18.4" ry="18.4"/>
<text text-anchor="middle" x="631.74" y="-740.16" font-family="Helvetica,sans-Serif" font-size="14.00">gt</text>
</g>
<!-- 2002419492405399916&#45;&gt;1877047243791410661 -->
<g id="edge40" class="edge">
<title>2002419492405399916&#45;&gt;1877047243791410661</title>
<path fill="none" stroke="black" d="M634,-690.02C633.68,-697.55 633.29,-706.57 632.93,-715.01"/>
<polygon fill="black" stroke="black" points="629.42,-715.08 632.49,-725.22 636.42,-715.38 629.42,-715.08"/>
</g>
<!-- &#45;7327413143243567357&#45;&gt;&#45;7049029746738975710 -->
<g id="edge33" class="edge">
<title>&#45;7327413143243567357&#45;&gt;&#45;7049029746738975710</title>
<path fill="none" stroke="black" d="M879.25,-762.22C879.03,-769.95 878.76,-779.25 878.51,-787.87"/>
<polygon fill="black" stroke="black" points="875.01,-787.81 878.23,-797.91 882.01,-788.01 875.01,-787.81"/>
</g>
<!-- &#45;7288720221306731607&#45;&gt;&#45;541388990636977285 -->
<g id="edge35" class="edge">
<title>&#45;7288720221306731607&#45;&gt;&#45;541388990636977285</title>
<path fill="none" stroke="black" d="M164.25,-762.22C164.03,-769.95 163.76,-779.25 163.51,-787.87"/>
<polygon fill="black" stroke="black" points="160.01,-787.81 163.23,-797.91 167.01,-788.01 160.01,-787.81"/>
</g>
<!-- &#45;3049401048867838999&#45;&gt;&#45;5434463019609673651 -->
<g id="edge37" class="edge">
<title>&#45;3049401048867838999&#45;&gt;&#45;5434463019609673651</title>
<path fill="none" stroke="black" d="M411.25,-762.22C411.03,-769.95 410.76,-779.25 410.51,-787.87"/>
<polygon fill="black" stroke="black" points="407.01,-787.81 410.23,-797.91 414.01,-788.01 407.01,-787.81"/>
</g>
<!-- 1877047243791410661&#45;&gt;1073177736492324774 -->
<g id="edge39" class="edge">
<title>1877047243791410661&#45;&gt;1073177736492324774</title>
<path fill="none" stroke="black" d="M630.26,-762.22C629.6,-769.95 628.8,-779.25 628.06,-787.87"/>
<polygon fill="black" stroke="black" points="624.57,-787.65 627.21,-797.91 631.54,-788.24 624.57,-787.65"/>
</g>
<!-- &#45;8365535502471265069 -->
<g id="node42" class="node">
<title>&#45;8365535502471265069</title>
<polygon fill="none" stroke="black" points="875.74,-1211.25 821.74,-1211.25 821.74,-1175.25 875.74,-1175.25 875.74,-1211.25"/>
<text text-anchor="middle" x="848.74" y="-1189.55" font-family="Helvetica,sans-Serif" font-size="14.00">0</text>
</g>
<!-- 1009892751118477009&#45;&gt;&#45;8365535502471265069 -->
<g id="edge41" class="edge">
<title>1009892751118477009&#45;&gt;&#45;8365535502471265069</title>
<path fill="none" stroke="black" d="M848.74,-1139.36C848.74,-1147.98 848.74,-1156.93 848.74,-1164.95"/>
<polygon fill="black" stroke="black" points="845.24,-1165.21 848.74,-1175.21 852.24,-1165.21 845.24,-1165.21"/>
</g>
<!-- &#45;7331327813854976558 -->
<g id="node49" class="node">
<title>&#45;7331327813854976558</title>
<ellipse fill="none" stroke="black" cx="848.74" cy="-1360.99" rx="113.98" ry="113.98"/>
<text text-anchor="middle" x="848.74" y="-1357.29" font-family="Helvetica,sans-Serif" font-size="14.00">series&#45;groupby&#45;var&#45;chunk</text>
</g>
<!-- &#45;8365535502471265069&#45;&gt;&#45;7331327813854976558 -->
<g id="edge50" class="edge">
<title>&#45;8365535502471265069&#45;&gt;&#45;7331327813854976558</title>
<path fill="none" stroke="black" d="M848.74,-1211.36C848.74,-1218.37 848.74,-1227.13 848.74,-1236.87"/>
<polygon fill="black" stroke="black" points="845.24,-1236.91 848.74,-1246.91 852.24,-1236.91 845.24,-1236.91"/>
</g>
<!-- 789777159281222053 -->
<g id="node44" class="node">
<title>789777159281222053</title>
<polygon fill="none" stroke="black" points="140.74,-1211.25 86.74,-1211.25 86.74,-1175.25 140.74,-1175.25 140.74,-1211.25"/>
<text text-anchor="middle" x="113.74" y="-1189.55" font-family="Helvetica,sans-Serif" font-size="14.00">1</text>
</g>
<!-- &#45;26946661153843634&#45;&gt;789777159281222053 -->
<g id="edge43" class="edge">
<title>&#45;26946661153843634&#45;&gt;789777159281222053</title>
<path fill="none" stroke="black" d="M113.74,-1139.36C113.74,-1147.98 113.74,-1156.93 113.74,-1164.95"/>
<polygon fill="black" stroke="black" points="110.24,-1165.21 113.74,-1175.21 117.24,-1165.21 110.24,-1165.21"/>
</g>
<!-- &#45;8762148228682956039 -->
<g id="node51" class="node">
<title>&#45;8762148228682956039</title>
<ellipse fill="none" stroke="black" cx="113.74" cy="-1360.99" rx="113.98" ry="113.98"/>
<text text-anchor="middle" x="113.74" y="-1357.29" font-family="Helvetica,sans-Serif" font-size="14.00">series&#45;groupby&#45;var&#45;chunk</text>
</g>
<!-- 789777159281222053&#45;&gt;&#45;8762148228682956039 -->
<g id="edge52" class="edge">
<title>789777159281222053&#45;&gt;&#45;8762148228682956039</title>
<path fill="none" stroke="black" d="M113.74,-1211.36C113.74,-1218.37 113.74,-1227.13 113.74,-1236.87"/>
<polygon fill="black" stroke="black" points="110.24,-1236.91 113.74,-1246.91 117.24,-1236.91 110.24,-1236.91"/>
</g>
<!-- 7297417915383220478 -->
<g id="node46" class="node">
<title>7297417915383220478</title>
<polygon fill="none" stroke="black" points="385.74,-1211.25 331.74,-1211.25 331.74,-1175.25 385.74,-1175.25 385.74,-1211.25"/>
<text text-anchor="middle" x="358.74" y="-1189.55" font-family="Helvetica,sans-Serif" font-size="14.00">2</text>
</g>
<!-- &#45;831073566302416676&#45;&gt;7297417915383220478 -->
<g id="edge45" class="edge">
<title>&#45;831073566302416676&#45;&gt;7297417915383220478</title>
<path fill="none" stroke="black" d="M358.74,-1139.36C358.74,-1147.98 358.74,-1156.93 358.74,-1164.95"/>
<polygon fill="black" stroke="black" points="355.24,-1165.21 358.74,-1175.21 362.24,-1165.21 355.24,-1165.21"/>
</g>
<!-- 1834439651243165710 -->
<g id="node53" class="node">
<title>1834439651243165710</title>
<ellipse fill="none" stroke="black" cx="358.74" cy="-1360.99" rx="113.98" ry="113.98"/>
<text text-anchor="middle" x="358.74" y="-1357.29" font-family="Helvetica,sans-Serif" font-size="14.00">series&#45;groupby&#45;var&#45;chunk</text>
</g>
<!-- 7297417915383220478&#45;&gt;1834439651243165710 -->
<g id="edge54" class="edge">
<title>7297417915383220478&#45;&gt;1834439651243165710</title>
<path fill="none" stroke="black" d="M358.74,-1211.36C358.74,-1218.37 358.74,-1227.13 358.74,-1236.87"/>
<polygon fill="black" stroke="black" points="355.24,-1236.91 358.74,-1246.91 362.24,-1236.91 355.24,-1236.91"/>
</g>
<!-- 2404343886410524112 -->
<g id="node48" class="node">
<title>2404343886410524112</title>
<polygon fill="none" stroke="black" points="630.74,-1211.25 576.74,-1211.25 576.74,-1175.25 630.74,-1175.25 630.74,-1211.25"/>
<text text-anchor="middle" x="603.74" y="-1189.55" font-family="Helvetica,sans-Serif" font-size="14.00">3</text>
</g>
<!-- 3408245606136475932&#45;&gt;2404343886410524112 -->
<g id="edge47" class="edge">
<title>3408245606136475932&#45;&gt;2404343886410524112</title>
<path fill="none" stroke="black" d="M603.74,-1139.36C603.74,-1147.98 603.74,-1156.93 603.74,-1164.95"/>
<polygon fill="black" stroke="black" points="600.24,-1165.21 603.74,-1175.21 607.24,-1165.21 600.24,-1165.21"/>
</g>
<!-- 1675401440697690190 -->
<g id="node55" class="node">
<title>1675401440697690190</title>
<ellipse fill="none" stroke="black" cx="603.74" cy="-1360.99" rx="113.98" ry="113.98"/>
<text text-anchor="middle" x="603.74" y="-1357.29" font-family="Helvetica,sans-Serif" font-size="14.00">series&#45;groupby&#45;var&#45;chunk</text>
</g>
<!-- 2404343886410524112&#45;&gt;1675401440697690190 -->
<g id="edge56" class="edge">
<title>2404343886410524112&#45;&gt;1675401440697690190</title>
<path fill="none" stroke="black" d="M603.74,-1211.36C603.74,-1218.37 603.74,-1227.13 603.74,-1236.87"/>
<polygon fill="black" stroke="black" points="600.24,-1236.91 603.74,-1246.91 607.24,-1236.91 600.24,-1236.91"/>
</g>
<!-- 7654874445250473085 -->
<g id="node50" class="node">
<title>7654874445250473085</title>
<polygon fill="none" stroke="black" points="788.74,-1546.73 734.74,-1546.73 734.74,-1510.73 788.74,-1510.73 788.74,-1546.73"/>
<text text-anchor="middle" x="761.74" y="-1525.03" font-family="Helvetica,sans-Serif" font-size="14.00">0</text>
</g>
<!-- &#45;7331327813854976558&#45;&gt;7654874445250473085 -->
<g id="edge49" class="edge">
<title>&#45;7331327813854976558&#45;&gt;7654874445250473085</title>
<path fill="none" stroke="black" d="M796.12,-1462.22C788.54,-1476.67 781.34,-1490.38 775.51,-1501.49"/>
<polygon fill="black" stroke="black" points="772.31,-1500.05 770.77,-1510.53 778.51,-1503.3 772.31,-1500.05"/>
</g>
<!-- &#45;4313594997787244580 -->
<g id="node57" class="node">
<title>&#45;4313594997787244580</title>
<ellipse fill="none" stroke="black" cx="480.74" cy="-1687.37" rx="104.78" ry="104.78"/>
<text text-anchor="middle" x="480.74" y="-1683.67" font-family="Helvetica,sans-Serif" font-size="14.00">series&#45;groupby&#45;var&#45;agg</text>
</g>
<!-- 7654874445250473085&#45;&gt;&#45;4313594997787244580 -->
<g id="edge60" class="edge">
<title>7654874445250473085&#45;&gt;&#45;4313594997787244580</title>
<path fill="none" stroke="black" d="M734.54,-1544.89C699.25,-1564.56 635.71,-1599.98 581.04,-1630.45"/>
<polygon fill="black" stroke="black" points="579.03,-1627.57 572,-1635.49 582.44,-1633.68 579.03,-1627.57"/>
</g>
<!-- 2761800416277776719 -->
<g id="node52" class="node">
<title>2761800416277776719</title>
<polygon fill="none" stroke="black" points="270.74,-1546.73 216.74,-1546.73 216.74,-1510.73 270.74,-1510.73 270.74,-1546.73"/>
<text text-anchor="middle" x="243.74" y="-1525.03" font-family="Helvetica,sans-Serif" font-size="14.00">1</text>
</g>
<!-- &#45;8762148228682956039&#45;&gt;2761800416277776719 -->
<g id="edge51" class="edge">
<title>&#45;8762148228682956039&#45;&gt;2761800416277776719</title>
<path fill="none" stroke="black" d="M183.69,-1451.16C198.42,-1469.95 212.81,-1488.29 223.81,-1502.32"/>
<polygon fill="black" stroke="black" points="221.27,-1504.75 230.19,-1510.45 226.77,-1500.43 221.27,-1504.75"/>
</g>
<!-- 2761800416277776719&#45;&gt;&#45;4313594997787244580 -->
<g id="edge61" class="edge">
<title>2761800416277776719&#45;&gt;&#45;4313594997787244580</title>
<path fill="none" stroke="black" d="M269.55,-1546.79C297.33,-1565.15 343.18,-1595.45 385.07,-1623.14"/>
<polygon fill="black" stroke="black" points="383.39,-1626.22 393.66,-1628.82 387.25,-1620.38 383.39,-1626.22"/>
</g>
<!-- &#45;9177302901329776472 -->
<g id="node54" class="node">
<title>&#45;9177302901329776472</title>
<polygon fill="none" stroke="black" points="428.74,-1546.73 374.74,-1546.73 374.74,-1510.73 428.74,-1510.73 428.74,-1546.73"/>
<text text-anchor="middle" x="401.74" y="-1525.03" font-family="Helvetica,sans-Serif" font-size="14.00">2</text>
</g>
<!-- 1834439651243165710&#45;&gt;&#45;9177302901329776472 -->
<g id="edge53" class="edge">
<title>1834439651243165710&#45;&gt;&#45;9177302901329776472</title>
<path fill="none" stroke="black" d="M387.06,-1471.15C389.88,-1482.01 392.52,-1492.2 394.77,-1500.85"/>
<polygon fill="black" stroke="black" points="391.4,-1501.79 397.29,-1510.59 398.17,-1500.03 391.4,-1501.79"/>
</g>
<!-- &#45;9177302901329776472&#45;&gt;&#45;4313594997787244580 -->
<g id="edge58" class="edge">
<title>&#45;9177302901329776472&#45;&gt;&#45;4313594997787244580</title>
<path fill="none" stroke="black" d="M410.34,-1546.79C415.31,-1556.64 422.01,-1569.92 429.31,-1584.4"/>
<polygon fill="black" stroke="black" points="426.3,-1586.19 433.93,-1593.55 432.55,-1583.04 426.3,-1586.19"/>
</g>
<!-- 4376367143407078778 -->
<g id="node56" class="node">
<title>4376367143407078778</title>
<polygon fill="none" stroke="black" points="586.74,-1546.73 532.74,-1546.73 532.74,-1510.73 586.74,-1510.73 586.74,-1546.73"/>
<text text-anchor="middle" x="559.74" y="-1525.03" font-family="Helvetica,sans-Serif" font-size="14.00">3</text>
</g>
<!-- 1675401440697690190&#45;&gt;4376367143407078778 -->
<g id="edge55" class="edge">
<title>1675401440697690190&#45;&gt;4376367143407078778</title>
<path fill="none" stroke="black" d="M574.76,-1471.15C571.88,-1482.01 569.17,-1492.2 566.87,-1500.85"/>
<polygon fill="black" stroke="black" points="563.47,-1500.03 564.29,-1510.59 570.24,-1501.82 563.47,-1500.03"/>
</g>
<!-- 4376367143407078778&#45;&gt;&#45;4313594997787244580 -->
<g id="edge59" class="edge">
<title>4376367143407078778&#45;&gt;&#45;4313594997787244580</title>
<path fill="none" stroke="black" d="M551.14,-1546.79C546.17,-1556.64 539.47,-1569.92 532.17,-1584.4"/>
<polygon fill="black" stroke="black" points="528.93,-1583.04 527.55,-1593.55 535.18,-1586.19 528.93,-1583.04"/>
</g>
<!-- &#45;6860747317429835543 -->
<g id="node58" class="node">
<title>&#45;6860747317429835543</title>
<polygon fill="none" stroke="black" points="507.74,-1864.01 453.74,-1864.01 453.74,-1828.01 507.74,-1828.01 507.74,-1864.01"/>
<text text-anchor="middle" x="480.74" y="-1842.31" font-family="Helvetica,sans-Serif" font-size="14.00">0</text>
</g>
<!-- &#45;4313594997787244580&#45;&gt;&#45;6860747317429835543 -->
<g id="edge57" class="edge">
<title>&#45;4313594997787244580&#45;&gt;&#45;6860747317429835543</title>
<path fill="none" stroke="black" d="M480.74,-1792.41C480.74,-1801.53 480.74,-1810.11 480.74,-1817.61"/>
<polygon fill="black" stroke="black" points="477.24,-1817.73 480.74,-1827.73 484.24,-1817.73 477.24,-1817.73"/>
</g>
<!-- 8499689125527699742 -->
<g id="node59" class="node">
<title>8499689125527699742</title>
<ellipse fill="none" stroke="black" cx="480.74" cy="-1940.3" rx="40.09" ry="40.09"/>
<text text-anchor="middle" x="480.74" y="-1936.6" font-family="Helvetica,sans-Serif" font-size="14.00">getitem</text>
</g>
<!-- &#45;6860747317429835543&#45;&gt;8499689125527699742 -->
<g id="edge63" class="edge">
<title>&#45;6860747317429835543&#45;&gt;8499689125527699742</title>
<path fill="none" stroke="black" d="M480.74,-1864.37C480.74,-1871.65 480.74,-1880.53 480.74,-1889.59"/>
<polygon fill="black" stroke="black" points="477.24,-1889.83 480.74,-1899.83 484.24,-1889.83 477.24,-1889.83"/>
</g>
<!-- 808338967462093868 -->
<g id="node60" class="node">
<title>808338967462093868</title>
<polygon fill="none" stroke="black" points="507.74,-2052.6 453.74,-2052.6 453.74,-2016.6 507.74,-2016.6 507.74,-2052.6"/>
<text text-anchor="middle" x="480.74" y="-2030.9" font-family="Helvetica,sans-Serif" font-size="14.00">0</text>
</g>
<!-- 8499689125527699742&#45;&gt;808338967462093868 -->
<g id="edge62" class="edge">
<title>8499689125527699742&#45;&gt;808338967462093868</title>
<path fill="none" stroke="black" d="M480.74,-1980.71C480.74,-1989.34 480.74,-1998.28 480.74,-2006.31"/>
<polygon fill="black" stroke="black" points="477.24,-2006.56 480.74,-2016.56 484.24,-2006.56 477.24,-2006.56"/>
</g>
<!-- 2143486554077959639 -->
<g id="node61" class="node">
<title>2143486554077959639</title>
<ellipse fill="none" stroke="black" cx="480.74" cy="-2114.6" rx="26" ry="26"/>
<text text-anchor="middle" x="480.74" y="-2110.9" font-family="Helvetica,sans-Serif" font-size="14.00">sqrt</text>
</g>
<!-- 808338967462093868&#45;&gt;2143486554077959639 -->
<g id="edge65" class="edge">
<title>808338967462093868&#45;&gt;2143486554077959639</title>
<path fill="none" stroke="black" d="M480.74,-2052.91C480.74,-2060.39 480.74,-2069.44 480.74,-2078.24"/>
<polygon fill="black" stroke="black" points="477.24,-2078.34 480.74,-2088.34 484.24,-2078.34 477.24,-2078.34"/>
</g>
<!-- 5661882285381253292 -->
<g id="node62" class="node">
<title>5661882285381253292</title>
<polygon fill="none" stroke="black" points="507.74,-2212.6 453.74,-2212.6 453.74,-2176.6 507.74,-2176.6 507.74,-2212.6"/>
<text text-anchor="middle" x="480.74" y="-2190.9" font-family="Helvetica,sans-Serif" font-size="14.00">0</text>
</g>
<!-- 2143486554077959639&#45;&gt;5661882285381253292 -->
<g id="edge64" class="edge">
<title>2143486554077959639&#45;&gt;5661882285381253292</title>
<path fill="none" stroke="black" d="M480.74,-2140.71C480.74,-2148.76 480.74,-2157.72 480.74,-2165.94"/>
<polygon fill="black" stroke="black" points="477.24,-2166.19 480.74,-2176.19 484.24,-2166.19 477.24,-2166.19"/>
</g>
</g>
</svg>
